<?xml version="1.0" standalone="no"?>
<!DOCTYPE svg PUBLIC "-//W3C//DTD SVG 1.1//EN" "http://www.w3.org/Graphics/SVG/1.1/DTD/svg11.dtd">
<svg width="500px" height="500px" version="1.1" xmlns="http://www.w3.org/2000/svg" xmlns:xlink="http://www.w3.org/1999/xlink" xml:space="preserve" style="fill-rule:evenodd;clip-rule:evenodd;stroke-linejoin:round;stroke-miterlimit:1.41421;">
    <g>
        <g id="Layer1">
            <g>
                <path d="M251.933,10.4007L456.348,143.356L454.501,353.515L251.933,489.599L43.6524,353.59L46.6195,143.439L251.933,10.4007Z" style="fill:none;stroke-width:10.42px;stroke:white;"/>
            </g>
            <g>
                <path d="M406.449,301.065C391.448,301.065 379.288,313.222 379.288,328.223C379.288,330.367 379.562,332.443 380.027,334.443C377.342,336.211 373.762,338.382 369.375,340.718C364.393,343.378 358.45,346.23 351.912,348.955C345.367,351.664 338.261,354.297 331.128,356.885C323.988,359.44 316.807,361.929 309.988,364.087C306.576,365.164 303.29,366.214 300.123,367.12C296.957,368.036 293.965,368.898 291.208,369.695C289.352,370.187 287.642,370.645 286.004,371.08C280.495,365.41 273.663,361.06 266.003,358.486C264.933,352.047 263.685,343.477 262.563,333.421C261.281,322.044 260.166,308.773 259.41,294.554C259.195,290.998 259.051,287.384 258.915,283.728C258.757,280.066 258.617,276.366 258.549,272.635C258.316,265.171 258.289,257.583 258.227,249.998C258.289,242.417 258.303,234.833 258.528,227.365C258.603,223.634 258.723,219.931 258.891,216.275C259.038,212.616 259.164,209.002 259.383,205.446C260.132,191.227 261.247,177.956 262.536,166.583C263.658,156.523 264.906,147.96 265.99,141.521C273.656,138.946 280.495,134.59 286.004,128.924C287.642,129.358 289.352,129.813 291.208,130.305C293.965,131.102 296.957,131.967 300.123,132.88C303.29,133.786 306.576,134.836 309.988,135.913C316.807,138.074 323.988,140.56 331.128,143.118C338.261,145.703 345.367,148.34 351.912,151.048C358.45,153.773 364.393,156.622 369.375,159.286C373.762,161.621 377.342,163.789 380.027,165.56C379.562,167.561 379.288,169.633 379.288,171.774C379.288,186.778 391.448,198.938 406.449,198.938C421.451,198.938 433.61,186.778 433.61,171.774C433.61,156.776 421.451,144.612 406.449,144.612C398.041,144.612 390.528,148.439 385.539,154.44C382.513,153.366 378.625,151.817 374.132,149.735C368.995,147.365 363.138,144.336 357.02,140.769C350.923,137.178 344.532,133.099 338.165,128.975C331.822,124.817 325.51,120.587 319.672,116.449C316.759,114.377 313.935,112.387 311.305,110.407C308.665,108.438 306.176,106.574 303.878,104.85C302.356,103.66 300.957,102.566 299.617,101.52C299.997,99.0339 300.256,96.5069 300.256,93.9149C300.256,66.1622 277.749,43.6652 250,43.6652C222.244,43.6652 199.75,66.1622 199.75,93.9149C199.75,116.066 214.102,134.836 234.004,141.521C235.088,147.964 236.336,156.523 237.464,166.583C238.753,177.956 239.868,191.227 240.61,205.446C240.836,209.002 240.959,212.616 241.109,216.275C241.277,219.931 241.39,223.634 241.465,227.365C241.691,234.833 241.711,242.417 241.766,249.998C241.711,257.583 241.677,265.171 241.444,272.635C241.379,276.366 241.243,280.066 241.085,283.728C240.945,287.384 240.805,290.998 240.583,294.554C239.834,308.773 238.712,322.044 237.437,333.421C236.308,343.477 235.067,352.043 233.99,358.486C226.33,361.06 219.498,365.41 213.989,371.08C212.358,370.645 210.648,370.187 208.792,369.695C206.029,368.898 203.036,368.036 199.877,367.12C196.71,366.214 193.417,365.164 190.005,364.087C183.193,361.929 176.012,359.44 168.865,356.885C161.739,354.297 154.627,351.664 148.088,348.955C141.55,346.23 135.6,343.378 130.618,340.718C126.231,338.382 122.651,336.211 119.973,334.443C120.438,332.443 120.712,330.367 120.712,328.223C120.712,315.701 112.231,305.196 100.711,302.05C100.431,298.942 100.068,294.407 99.7742,288.902C99.463,283.602 99.1997,277.409 99.0424,270.782C98.9809,267.462 98.8338,264.039 98.8338,260.554C98.8065,257.073 98.7791,253.541 98.7552,249.998C98.7791,246.463 98.8133,242.927 98.8338,239.446C98.8475,235.965 98.9809,232.542 99.0493,229.221C99.2134,222.591 99.4767,216.402 99.781,211.095C100.075,205.596 100.438,201.058 100.711,197.953C112.231,194.807 120.712,184.296 120.712,171.774C120.712,156.776 108.552,144.612 93.5507,144.612C78.5493,144.612 66.3896,156.776 66.3896,171.774C66.3896,184.296 74.8631,194.807 86.3834,197.953C86.6638,201.058 87.0263,205.596 87.3135,211.095C87.6281,216.402 87.888,222.591 88.0556,229.221C88.1205,232.542 88.2471,235.965 88.2607,239.446C88.2949,242.927 88.3223,246.463 88.3496,249.998C88.3223,253.541 88.2949,257.073 88.2607,260.554C88.2607,264.039 88.1205,267.462 88.0624,270.782C87.8948,277.409 87.635,283.602 87.3272,288.902C87.0263,294.407 86.6638,298.942 86.3903,302.05C74.8631,305.193 66.3896,315.701 66.3896,328.223C66.3896,343.228 78.5493,355.388 93.5507,355.388C101.959,355.388 109.479,351.564 114.461,345.56C117.48,346.634 121.368,348.179 125.862,350.268C130.998,352.638 136.855,355.664 142.973,359.234C149.077,362.822 155.464,366.901 161.828,371.028C168.178,375.183 174.49,379.413 180.321,383.554C183.241,385.623 186.065,387.616 188.695,389.596C191.328,391.566 193.817,393.43 196.122,395.153C197.641,396.34 199.043,397.441 200.383,398.484C200.003,400.973 199.75,403.493 199.75,406.085C199.75,433.838 222.244,456.335 250,456.335C277.749,456.335 300.256,433.838 300.256,406.085C300.256,403.493 299.997,400.966 299.617,398.48C300.957,397.437 302.356,396.34 303.878,395.153C306.176,393.43 308.665,391.566 311.305,389.596C313.935,387.616 316.759,385.623 319.672,383.554C325.51,379.413 331.822,375.183 338.165,371.028C344.532,366.901 350.923,362.822 357.02,359.234C363.138,355.664 368.995,352.638 374.132,350.268C378.625,348.179 382.513,346.634 385.539,345.56C390.528,351.564 398.041,355.388 406.449,355.388C421.451,355.388 433.61,343.228 433.61,328.223C433.61,313.222 421.451,301.065 406.449,301.065" style="fill:white;fill-rule:nonzero;"/>
            </g>
        </g>
    </g>
</svg>
