<?xml version="1.0" standalone="no"?>
<!DOCTYPE svg PUBLIC "-//W3C//DTD SVG 1.1//EN" "http://www.w3.org/Graphics/SVG/1.1/DTD/svg11.dtd">
<svg width="1000px" height="1000px" version="1.1" xmlns="http://www.w3.org/2000/svg" xmlns:xlink="http://www.w3.org/1999/xlink" xml:space="preserve" style="fill-rule:evenodd;clip-rule:evenodd;stroke-linejoin:round;stroke-miterlimit:1.41421;">
    <g>
        <path d="M0,499.968C0,361.956 48.825,244.125 146.475,146.475C244.125,48.825 361.956,9.4739e-15 499.968,2.84217e-14C637.98,4.73695e-14 755.811,48.825 853.461,146.475C951.111,244.125 999.936,361.956 999.936,499.968C999.936,637.98 951.111,755.811 853.461,853.461C755.811,951.111 637.98,999.936 499.968,999.936C361.956,999.936 244.125,951.111 146.475,853.461C48.825,755.811 8.52651e-14,637.98 2.84217e-14,499.968ZM177.723,658.161C177.723,672.483 183.582,679.644 195.3,679.644L267.561,679.644L267.561,587.853C267.561,576.135 270.491,565.394 276.35,555.629C282.209,545.864 290.347,538.378 300.763,533.169L374.977,498.015C381.487,494.109 386.695,489.552 390.601,484.344C382.789,472.626 376.279,458.955 371.071,443.331C365.863,427.707 363.259,411.432 363.259,394.506C363.259,384.09 364.561,373.674 367.165,363.258C369.769,352.842 373.024,343.077 376.93,333.963C363.91,324.849 350.239,320.292 335.917,320.292C311.179,321.594 291.649,331.684 277.327,350.563C263.005,369.442 255.844,390.599 255.844,414.036C257.146,454.398 271.468,483.042 298.81,499.968L187.489,550.746C180.979,554.652 177.724,561.162 177.724,570.276L177.724,658.161ZM300.762,679.644C299.46,706.986 307.272,721.308 324.198,722.61L673.785,722.61C681.597,720.006 687.131,716.1 690.386,710.892C693.641,705.684 695.269,701.453 695.269,698.198L695.269,587.854C695.269,576.136 690.712,568.324 681.598,564.418L587.854,517.546L546.841,498.016C571.579,483.694 587.854,458.956 595.666,423.802C600.874,404.272 600.874,384.091 595.666,363.259C589.156,339.823 577.113,319.967 559.536,303.692C541.959,287.417 521.453,278.628 498.016,277.326C474.58,278.628 454.399,287.417 437.473,303.692C420.547,319.967 408.829,339.172 402.319,361.306C394.507,391.252 397.111,421.849 410.131,453.097C420.547,472.627 434.218,488.251 451.144,499.969L414.037,517.546L316.387,562.465C305.971,567.673 300.763,576.136 300.763,587.854L300.763,679.645ZM607.383,484.344C612.591,489.552 619.101,494.76 626.913,499.968C634.725,505.176 641.886,509.082 648.396,511.686C654.906,514.29 663.369,517.871 673.785,522.428C684.201,526.985 692.013,530.566 697.221,533.17C707.637,538.378 715.775,545.865 721.634,555.63C727.493,565.395 730.423,576.137 730.423,587.854L730.423,679.645L804.637,679.645C816.355,678.343 822.214,671.182 822.214,658.162L822.214,570.277C822.214,561.163 818.959,554.653 812.449,550.747L703.081,498.016C730.423,478.486 744.094,450.493 744.094,414.037C744.094,389.299 736.282,367.491 720.658,348.612C705.034,329.733 686.155,320.294 664.021,320.293C649.699,320.293 635.377,324.85 621.055,333.964C628.867,353.494 632.773,373.675 632.773,394.507C632.773,427.057 624.31,457.003 607.384,484.345Z" style="fill:white;fill-rule:nonzero;stroke-width:1px;stroke:white;"/>
    </g>
</svg>
