<?xml version="1.0" encoding="utf-8"?>
<!-- Generator: Adobe Illustrator 18.1.0, SVG Export Plug-In . SVG Version: 6.00 Build 0)  -->
<!DOCTYPE svg PUBLIC "-//W3C//DTD SVG 1.1//EN" "http://www.w3.org/Graphics/SVG/1.1/DTD/svg11.dtd">
<svg version="1.1" id="Layer_1" xmlns="http://www.w3.org/2000/svg" xmlns:xlink="http://www.w3.org/1999/xlink" x="0px" y="0px"
	 viewBox="244 244 24 24" enable-background="new 244 244 24 24" xml:space="preserve">
<path fill="#FFFFFF" d="M267.9,248.5c-0.9,0.4-1.8,0.7-2.8,0.8c1-0.6,1.8-1.5,2.1-2.7c-1,0.6-2,1-3.1,1.2c-0.9-1-2.1-1.5-3.6-1.5
	c-2.7,0-4.9,2.2-4.9,4.9c0,0.4,0,0.8,0.1,1.2c-4-0.2-7.7-2.1-10.1-5.1c-0.4,0.8-0.7,1.5-0.7,2.5c0,1.7,0.9,3.2,2.2,4
	c-0.8,0-1.5-0.3-2.2-0.6v0.1c0,2.4,1.6,4.3,3.9,4.8c-0.4,0.1-0.9,0.2-1.3,0.2c-0.3,0-0.6,0-1-0.1c0.6,1.9,2.4,3.4,4.5,3.4
	c-1.6,1.3-3.8,2.1-6.1,2.1c-0.4,0-0.8,0-1.2-0.1c2.1,1.3,4.7,2.2,7.5,2.2c8.9,0,13.9-7.4,13.9-13.9c0-0.2,0-0.4,0-0.7
	C266.5,250.4,267.3,249.5,267.9,248.5"/>
</svg>
