<?xml version="1.0" encoding="UTF-8" standalone="no"?>
<svg width="175px" height="75px" viewBox="0 0 175 75" version="1.1" xmlns="http://www.w3.org/2000/svg" xmlns:xlink="http://www.w3.org/1999/xlink">
    <g id="Page-1" stroke="none" stroke-width="1" fill="none" fill-rule="evenodd">
        <g id="Artboard" fill="#FFFFFF">
            <path d="M24.4637495,45 L23.3537495,40.14 L16.2137495,40.14 L15.1337495,45 L12.6137495,45 C12.9537512,43.6799934 13.3337474,42.2500077 13.7537495,40.71 C14.1737516,39.1699923 14.628747,37.5900081 15.1187495,35.97 C15.6087519,34.3499919 16.1237468,32.7250082 16.6637495,31.095 C17.2037522,29.4649919 17.7737465,27.9100074 18.3737495,26.43 L21.4337495,26.43 C22.0137524,27.9100074 22.5687468,29.4649919 23.0987495,31.095 C23.6287521,32.7250082 24.1287471,34.3499919 24.5987495,35.97 C25.0687518,37.5900081 25.5137474,39.1699923 25.9337495,40.71 C26.3537516,42.2500077 26.7337478,43.6799934 27.0737495,45 L24.4637495,45 Z M19.8137495,28.59 C19.3537472,29.8500063 18.8537522,31.3099917 18.3137495,32.97 C17.7737468,34.6300083 17.2637519,36.3399912 16.7837495,38.1 L22.7837495,38.1 C22.3237472,36.299991 21.8287521,34.5650083 21.2987495,32.895 C20.7687468,31.2249916 20.2737518,29.790006 19.8137495,28.59 L19.8137495,28.59 Z M42.9562496,44.22 C42.2562461,44.620002 41.5112535,44.914999 40.7212496,45.105 C39.9312456,45.295001 39.0862541,45.39 38.1862496,45.39 C37.0862441,45.39 36.0712542,45.1950019 35.1412496,44.805 C34.2112449,44.4149981 33.406253,43.8250039 32.7262496,43.035 C32.0462462,42.244996 31.5112515,41.2400061 31.1212496,40.02 C30.7312476,38.7999939 30.5362496,37.3600083 30.5362496,35.7 C30.5362496,34.1199921 30.7412475,32.730006 31.1512496,31.53 C31.5612516,30.329994 32.1162461,29.3200041 32.8162496,28.5 C33.5162531,27.6799959 34.3362449,27.0600021 35.2762496,26.64 C36.2162543,26.2199979 37.2162443,26.01 38.2762496,26.01 C39.0162533,26.01 39.7712457,26.109999 40.5412496,26.31 C41.3112534,26.510001 42.0662459,26.8399977 42.8062496,27.3 L42.0862496,29.34 C40.766243,28.5799962 39.5262554,28.2 38.3662496,28.2 C37.5462455,28.2 36.8112528,28.3749983 36.1612496,28.725 C35.5112463,29.0750017 34.9562519,29.5799967 34.4962496,30.24 C34.0362473,30.9000033 33.6812508,31.6899954 33.4312496,32.61 C33.1812483,33.5300046 33.0562496,34.5599943 33.0562496,35.7 C33.0562496,36.9800064 33.1912482,38.0899953 33.4612496,39.03 C33.7312509,39.9700047 34.1062472,40.7499969 34.5862496,41.37 C35.066252,41.9900031 35.6412462,42.4499985 36.3112496,42.75 C36.9812529,43.0500015 37.7062457,43.2 38.4862496,43.2 C39.0662525,43.2 39.6762464,43.1250007 40.3162496,42.975 C40.9562528,42.8249992 41.6162462,42.5600019 42.2962496,42.18 L42.9562496,44.22 Z M53.4987497,35.67 L56.3787497,26.43 L58.6887497,26.43 C59.0887517,29.3500146 59.3737489,32.3399847 59.5437497,35.4 C59.7137506,38.4600153 59.868749,41.6599833 60.0087497,45 L57.6087497,45 C57.5887496,43.9199946 57.5687498,42.7500063 57.5487497,41.49 C57.5287496,40.2299937 57.5037499,38.9300067 57.4737497,37.59 C57.4437496,36.2499933 57.4137499,34.8900069 57.3837497,33.51 C57.3537496,32.1299931 57.3187499,30.7900065 57.2787497,29.49 L54.5787497,37.95 L52.4187497,37.95 L49.6587497,29.49 C49.6387496,30.7900065 49.6137499,32.1249932 49.5837497,33.495 C49.5537496,34.8650069 49.5237499,36.2249932 49.4937497,37.575 C49.4637496,38.9250068 49.4337499,40.2299937 49.4037497,41.49 C49.3737496,42.7500063 49.3487498,43.9199946 49.3287497,45 L46.9287497,45 C46.98875,43.4799924 47.0587493,41.920008 47.1387497,40.32 C47.2187501,38.719992 47.3137492,37.1300079 47.4237497,35.55 C47.5337503,33.9699921 47.663749,32.4100077 47.8137497,30.87 C47.9637505,29.3299923 48.1287488,27.8500071 48.3087497,26.43 L50.5887497,26.43 L53.4987497,35.67 Z M76.8212498,43.11 C76.2212468,43.3500012 75.6112529,43.5149995 74.9912498,43.605 C74.3712467,43.6950005 73.8012524,43.74 73.2812498,43.74 C72.5812463,43.74 71.9312528,43.6250012 71.3312498,43.395 C70.7312468,43.1649989 70.2062521,42.8100024 69.7562498,42.33 C69.3062476,41.8499976 68.9562511,41.2350037 68.7062498,40.485 C68.4562486,39.7349962 68.3312498,38.8400052 68.3312498,37.8 C68.3312498,35.9399907 68.811245,34.5250049 69.7712498,33.555 C70.7312546,32.5849951 71.9812421,32.1 73.5212498,32.1 C73.6812506,32.1 73.8362491,32.1049999 73.9862498,32.115 C74.1362506,32.1250001 74.291249,32.1399999 74.4512498,32.16 C74.4512498,30.8999937 74.1912524,29.9000037 73.6712498,29.16 C73.1512472,28.4199963 72.3212555,28.05 71.1812498,28.05 C70.4812463,28.05 69.8412527,28.2199983 69.2612498,28.56 C68.6812469,28.9000017 68.1812519,29.4449963 67.7612498,30.195 C67.3412477,30.9450037 67.011251,31.9099941 66.7712498,33.09 C66.5312486,34.2700059 66.4112498,35.6999916 66.4112498,37.38 C66.4112498,38.6400063 66.5312486,39.8549941 66.7712498,41.025 C67.011251,42.1950059 67.3862473,43.2199956 67.8962498,44.1 C68.4062524,44.9800044 69.0562459,45.6849974 69.8462498,46.215 C70.6362538,46.7450027 71.5812443,47.01 72.6812498,47.01 C73.4812538,47.01 74.3112455,46.8800013 75.1712498,46.62 L75.4112498,48.63 C74.3512445,48.9100014 73.3712543,49.05 72.4712498,49.05 C71.0112425,49.05 69.7462552,48.7250033 68.6762498,48.075 C67.6062445,47.4249967 66.7262533,46.5700053 66.0362498,45.51 C65.3462464,44.4499947 64.8312515,43.2400068 64.4912498,41.88 C64.1512481,40.5199932 63.9812498,39.1300071 63.9812498,37.71 C63.9812498,35.6499897 64.166248,33.8800074 64.5362498,32.4 C64.9062517,30.9199926 65.4162466,29.7100047 66.0662498,28.77 C66.7162531,27.8299953 67.4712455,27.1350022 68.3312498,26.685 C69.1912541,26.2349978 70.1212448,26.01 71.1212498,26.01 C72.8812586,26.01 74.2712447,26.6049941 75.2912498,27.795 C76.3112549,28.985006 76.8212498,30.6399894 76.8212498,32.76 L76.8212498,43.11 Z M70.7312498,37.8 C70.7312498,38.200002 70.7562496,38.6299977 70.8062498,39.09 C70.8562501,39.5500023 70.9712489,39.9749981 71.1512498,40.365 C71.3312507,40.755002 71.5862482,41.0849987 71.9162498,41.355 C72.2462515,41.6250013 72.7012469,41.76 73.2812498,41.76 C73.4412506,41.76 73.6212488,41.7500001 73.8212498,41.73 C74.0212508,41.7099999 74.2312487,41.6700003 74.4512498,41.61 L74.4512498,34.26 C74.2712489,34.1999997 74.0962507,34.1600001 73.9262498,34.14 C73.756249,34.1199999 73.5912506,34.11 73.4312498,34.11 C72.5712455,34.11 71.9062522,34.4449967 71.4362498,35.115 C70.9662475,35.7850033 70.7312498,36.6799944 70.7312498,37.8 L70.7312498,37.8 Z M87.0937499,45.39 C85.9937444,45.39 85.0587538,45.2300016 84.2887499,44.91 C83.5187461,44.5899984 82.8937523,44.1400029 82.4137499,43.56 C81.9337475,42.9799971 81.583751,42.2700042 81.3637499,41.43 C81.1437488,40.5899958 81.0337499,39.6500052 81.0337499,38.61 L81.0337499,26.43 L83.4937499,26.43 L83.4937499,38.34 C83.4937499,39.2800047 83.5787491,40.0649968 83.7487499,40.695 C83.9187508,41.3250032 84.1587484,41.8299981 84.4687499,42.21 C84.7787515,42.5900019 85.1537477,42.8599992 85.5937499,43.02 C86.0337521,43.1800008 86.5337471,43.26 87.0937499,43.26 C87.6537527,43.26 88.1537477,43.1800008 88.5937499,43.02 C89.0337521,42.8599992 89.4087484,42.5900019 89.7187499,42.21 C90.0287515,41.8299981 90.2687491,41.3250032 90.4387499,40.695 C90.6087508,40.0649968 90.6937499,39.2800047 90.6937499,38.34 L90.6937499,26.43 L93.1537499,26.43 L93.1537499,38.61 C93.1537499,39.6500052 93.043751,40.5899958 92.8237499,41.43 C92.6037488,42.2700042 92.2537523,42.9799971 91.7737499,43.56 C91.2937475,44.1400029 90.6687538,44.5899984 89.8987499,44.91 C89.1287461,45.2300016 88.1937554,45.39 87.0937499,45.39 L87.0937499,45.39 Z M110.20625,44.22 C109.506247,44.620002 108.761254,44.914999 107.97125,45.105 C107.181246,45.295001 106.336255,45.39 105.43625,45.39 C104.336245,45.39 103.321255,45.1950019 102.39125,44.805 C101.461245,44.4149981 100.656253,43.8250039 99.9762501,43.035 C99.2962467,42.244996 98.761252,41.2400061 98.3712501,40.02 C97.9812481,38.7999939 97.7862501,37.3600083 97.7862501,35.7 C97.7862501,34.1199921 97.991248,32.730006 98.4012501,31.53 C98.8112521,30.329994 99.3662466,29.3200041 100.06625,28.5 C100.766254,27.6799959 101.586245,27.0600021 102.52625,26.64 C103.466255,26.2199979 104.466245,26.01 105.52625,26.01 C106.266254,26.01 107.021246,26.109999 107.79125,26.31 C108.561254,26.510001 109.316246,26.8399977 110.05625,27.3 L109.33625,29.34 C108.016243,28.5799962 106.776256,28.2 105.61625,28.2 C104.796246,28.2 104.061253,28.3749983 103.41125,28.725 C102.761247,29.0750017 102.206252,29.5799967 101.74625,30.24 C101.286248,30.9000033 100.931251,31.6899954 100.68125,32.61 C100.431249,33.5300046 100.30625,34.5599943 100.30625,35.7 C100.30625,36.9800064 100.441249,38.0899953 100.71125,39.03 C100.981251,39.9700047 101.356248,40.7499969 101.83625,41.37 C102.316252,41.9900031 102.891247,42.4499985 103.56125,42.75 C104.231253,43.0500015 104.956246,43.2 105.73625,43.2 C106.316253,43.2 106.926247,43.1250007 107.56625,42.975 C108.206253,42.8249992 108.866247,42.5600019 109.54625,42.18 L110.20625,44.22 Z M122.93875,43.08 C122.93875,43.680003 122.738752,44.2099977 122.33875,44.67 C121.938748,45.1300023 121.408753,45.36 120.74875,45.36 C120.068747,45.36 119.528752,45.1300023 119.12875,44.67 C118.728748,44.2099977 118.52875,43.680003 118.52875,43.08 C118.52875,42.4599969 118.728748,41.9200023 119.12875,41.46 C119.528752,40.9999977 120.068747,40.77 120.74875,40.77 C121.408753,40.77 121.938748,40.9999977 122.33875,41.46 C122.738752,41.9200023 122.93875,42.4599969 122.93875,43.08 L122.93875,43.08 Z M122.93875,33.39 C122.93875,33.990003 122.738752,34.5199977 122.33875,34.98 C121.938748,35.4400023 121.408753,35.67 120.74875,35.67 C120.068747,35.67 119.528752,35.4400023 119.12875,34.98 C118.728748,34.5199977 118.52875,33.990003 118.52875,33.39 C118.52875,32.7699969 118.728748,32.2300023 119.12875,31.77 C119.528752,31.3099977 120.068747,31.08 120.74875,31.08 C121.408753,31.08 121.938748,31.3099977 122.33875,31.77 C122.738752,32.2300023 122.93875,32.7699969 122.93875,33.39 L122.93875,33.39 Z M143.92125,35.58 C143.86125,35.9200017 143.756251,36.3099978 143.60625,36.75 C143.45625,37.1900022 143.236252,37.5999981 142.94625,37.98 C142.656249,38.3600019 142.291252,38.6799987 141.85125,38.94 C141.411248,39.2000013 140.881253,39.33 140.26125,39.33 C139.721248,39.33 139.226253,39.2250011 138.77625,39.015 C138.326248,38.8049989 137.891252,38.5700013 137.47125,38.31 C136.991248,38.0299986 136.531252,37.7500014 136.09125,37.47 C135.651248,37.1899986 135.171253,37.05 134.65125,37.05 C134.371249,37.05 134.131251,37.1149994 133.93125,37.245 C133.731249,37.3750007 133.566251,37.539999 133.43625,37.74 C133.30625,37.940001 133.191251,38.1649987 133.09125,38.415 C132.99125,38.6650013 132.911251,38.8999989 132.85125,39.12 L131.14125,38.64 C131.201251,38.2999983 131.311249,37.9100022 131.47125,37.47 C131.631251,37.0299978 131.851249,36.6200019 132.13125,36.24 C132.411252,35.8599981 132.766248,35.5400013 133.19625,35.28 C133.626252,35.0199987 134.161247,34.89 134.80125,34.89 C135.341253,34.89 135.836248,34.994999 136.28625,35.205 C136.736253,35.4150011 137.171248,35.6499987 137.59125,35.91 C138.071253,36.1900014 138.536248,36.4699986 138.98625,36.75 C139.436253,37.0300014 139.911248,37.17 140.41125,37.17 C140.691252,37.17 140.931249,37.1050007 141.13125,36.975 C141.331251,36.8449994 141.49625,36.680001 141.62625,36.48 C141.756251,36.279999 141.87125,36.0550013 141.97125,35.805 C142.071251,35.5549987 142.15125,35.3200011 142.21125,35.1 L143.92125,35.58 Z M153.83375,42.45 C154.553754,42.45 155.158748,42.3950005 155.64875,42.285 C156.138753,42.1749995 156.523749,42.0150011 156.80375,41.805 C157.083752,41.594999 157.28375,41.3450014 157.40375,41.055 C157.523751,40.7649986 157.58375,40.4500017 157.58375,40.11 C157.58375,39.6099975 157.463752,39.1850017 157.22375,38.835 C156.983749,38.4849983 156.658752,38.1750014 156.24875,37.905 C155.838748,37.6349986 155.373753,37.395001 154.85375,37.185 C154.333748,36.9749989 153.793753,36.770001 153.23375,36.57 C152.693748,36.369999 152.158753,36.1500012 151.62875,35.91 C151.098748,35.6699988 150.628752,35.3750018 150.21875,35.025 C149.808748,34.6749983 149.473752,34.2550024 149.21375,33.765 C148.953749,33.2749976 148.82375,32.6700036 148.82375,31.95 C148.82375,30.6699936 149.203747,29.630004 149.96375,28.83 C150.723754,28.029996 151.823743,27.5200011 153.26375,27.3 L153.26375,24.21 L155.48375,24.21 L155.48375,27.21 C156.283754,27.2500002 157.018747,27.3449993 157.68875,27.495 C158.358754,27.6450008 158.893748,27.7999992 159.29375,27.96 L158.78375,30.06 C158.363748,29.8999992 157.833754,29.7350008 157.19375,29.565 C156.553747,29.3949992 155.743755,29.31 154.76375,29.31 C153.683745,29.31 152.858753,29.509998 152.28875,29.91 C151.718748,30.310002 151.43375,30.8899962 151.43375,31.65 C151.43375,32.0700021 151.51875,32.4199986 151.68875,32.7 C151.858751,32.9800014 152.103749,33.2299989 152.42375,33.45 C152.743752,33.6700011 153.118748,33.8699991 153.54875,34.05 C153.978753,34.2300009 154.463748,34.419999 155.00375,34.62 C155.683754,34.8800013 156.343747,35.1549986 156.98375,35.445 C157.623754,35.7350014 158.183748,36.079998 158.66375,36.48 C159.143753,36.880002 159.528749,37.3599972 159.81875,37.92 C160.108752,38.4800028 160.25375,39.1499961 160.25375,39.93 C160.25375,41.1100059 159.863754,42.1099959 159.08375,42.93 C158.303747,43.7500041 157.103759,44.259999 155.48375,44.46 L155.48375,47.91 L153.26375,47.91 L153.26375,44.55 C152.003744,44.5099998 150.983754,44.3700012 150.20375,44.13 C149.423747,43.8899988 148.843752,43.6600011 148.46375,43.44 L149.12375,41.37 C149.663753,41.6300013 150.303747,41.8749988 151.04375,42.105 C151.783754,42.3350011 152.713745,42.45 153.83375,42.45 L153.83375,42.45 Z" id="ACM@UC:~$"></path>
        </g>
    </g>
</svg>
