<?xml version="1.0" encoding="utf-8"?>
<!-- Generator: Adobe Illustrator 18.0.0, SVG Export Plug-In . SVG Version: 6.00 Build 0)  -->
<!DOCTYPE svg PUBLIC "-//W3C//DTD SVG 1.1//EN" "http://www.w3.org/Graphics/SVG/1.1/DTD/svg11.dtd">
<svg version="1.1" id="Layer_1" xmlns="http://www.w3.org/2000/svg" xmlns:xlink="http://www.w3.org/1999/xlink" x="0px" y="0px"
	 viewBox="0 0 206.1 57.6" enable-background="new 0 0 206.1 57.6" xml:space="preserve">
<g>
	<path fill="#C7C8C9" d="M140.9,53.7v1.4c0,0.2,0,0.2-0.2,0.2h-0.8c-0.2,0-0.2-0.1-0.2-0.2v-4.4c0-0.2,0.1-0.2,0.2-0.2h1.6
		c1.3,0,1.8,0.6,1.8,1.2v0.8c0,0.6-0.5,1.2-1.8,1.2H140.9 M140.9,51.4v1.3h0.6c0.3,0,0.7-0.1,0.7-0.5v-0.4c0-0.3-0.3-0.5-0.7-0.5
		H140.9z"/>
	<path fill="#C7C8C9" d="M147,53.4l0.7,1.8c0,0.1,0,0.2-0.2,0.2h-0.8c-0.1,0-0.2-0.1-0.2-0.2l-0.6-1.6h-0.5v1.6c0,0.2,0,0.2-0.2,0.2
		h-0.8c-0.2,0-0.2-0.1-0.2-0.2v-4.4c0-0.2,0.1-0.2,0.2-0.2h1.6c1.3,0,1.8,0.6,1.8,1.2v0.6C147.8,52.7,147.6,53.1,147,53.4
		 M145.4,51.4v1.1h0.6c0.4,0,0.7-0.1,0.7-0.5v-0.2c0-0.3-0.3-0.5-0.7-0.5H145.4z"/>
	<path fill="#C7C8C9" d="M148.8,51.6c0-0.6,0.5-1.2,1.8-1.2c1.3,0,1.8,0.6,1.8,1.2v2.5c0,0.6-0.5,1.2-1.8,1.2
		c-1.3,0-1.8-0.6-1.8-1.2V51.6 M151.2,51.8c0-0.3-0.3-0.5-0.7-0.5c-0.4,0-0.6,0.1-0.6,0.5V54c0,0.3,0.3,0.5,0.6,0.5
		c0.4,0,0.7-0.1,0.7-0.5V51.8z"/>
	<path fill="#C7C8C9" d="M156.7,52.7c0.2,0,0.2,0.1,0.2,0.2v1.3c0,0.6-0.4,1.2-1.8,1.2c-1.3,0-1.8-0.6-1.8-1.2v-2.5
		c0-0.6,0.4-1.2,1.8-1.2c1.3,0,1.8,0.6,1.8,1.2v0.3c0,0.2-0.1,0.2-0.2,0.2H156c-0.2,0-0.2-0.1-0.2-0.2v0c0-0.3-0.3-0.5-0.6-0.5
		c-0.4,0-0.6,0.1-0.6,0.5V54c0,0.3,0.2,0.5,0.6,0.5c0.4,0,0.6-0.1,0.6-0.5v-0.3h-0.6c-0.2,0-0.2-0.1-0.2-0.2v-0.6
		c0-0.1,0.1-0.2,0.2-0.2H156.7"/>
	<path fill="#C7C8C9" d="M160.8,53.4l0.7,1.8c0.1,0.1,0,0.2-0.2,0.2h-0.8c-0.1,0-0.2-0.1-0.2-0.2l-0.6-1.6h-0.5v1.6
		c0,0.2,0,0.2-0.2,0.2h-0.8c-0.2,0-0.2-0.1-0.2-0.2v-4.4c0-0.2,0.1-0.2,0.2-0.2h1.6c1.3,0,1.8,0.6,1.8,1.2v0.6
		C161.6,52.7,161.4,53.1,160.8,53.4 M159.2,51.4v1.1h0.6c0.4,0,0.7-0.1,0.7-0.5v-0.2c0-0.3-0.3-0.5-0.7-0.5H159.2z"/>
	<path fill="#C7C8C9" d="M162.8,55.3c-0.2,0-0.2-0.1-0.2-0.2v-4.4c0-0.2,0.1-0.2,0.2-0.2h2.5c0.1,0,0.2,0.1,0.2,0.2v0.6
		c0,0.2-0.1,0.2-0.2,0.2h-1.5v0.9h1.4c0.2,0,0.2,0.1,0.2,0.2v0.5c0,0.2-0.1,0.2-0.2,0.2h-1.4v1.1h1.5c0.2,0,0.2,0.1,0.2,0.2v0.6
		c0,0.2-0.1,0.2-0.2,0.2H162.8"/>
	<path fill="#C7C8C9" d="M168.8,51.8c0-0.3-0.2-0.5-0.6-0.5c-0.3,0-0.6,0.1-0.6,0.5v0.1c0,0.2,0.2,0.3,0.2,0.3l1.2,0.4
		c0.5,0.2,0.9,0.6,0.9,1.1v0.5c0,0.6-0.4,1.2-1.8,1.2c-1.3,0-1.8-0.6-1.8-1.2v-0.5c0-0.2,0.1-0.2,0.2-0.2h0.7c0.2,0,0.2,0.1,0.2,0.2
		V54c0,0.3,0.3,0.5,0.6,0.5c0.4,0,0.6-0.1,0.6-0.5v-0.1c0-0.3-0.3-0.4-0.6-0.5l-1-0.4c-0.4-0.1-0.7-0.5-0.7-1v-0.4
		c0-0.6,0.4-1.2,1.7-1.2c1.3,0,1.7,0.6,1.7,1.2v0.3c0,0.2-0.1,0.2-0.2,0.2H169c-0.2,0-0.2-0.1-0.2-0.2V51.8"/>
	<path fill="#C7C8C9" d="M173.2,51.8c0-0.3-0.2-0.5-0.6-0.5c-0.3,0-0.6,0.1-0.6,0.5v0.1c0,0.2,0.2,0.3,0.2,0.3l1.2,0.4
		c0.5,0.2,0.9,0.6,0.9,1.1v0.5c0,0.6-0.4,1.2-1.8,1.2c-1.3,0-1.8-0.6-1.8-1.2v-0.5c0-0.2,0.1-0.2,0.2-0.2h0.7c0.1,0,0.2,0.1,0.2,0.2
		V54c0,0.3,0.3,0.5,0.6,0.5c0.4,0,0.6-0.1,0.6-0.5v-0.1c0-0.3-0.3-0.4-0.6-0.5l-1-0.4c-0.4-0.1-0.7-0.5-0.7-1v-0.4
		c0-0.6,0.4-1.2,1.7-1.2c1.3,0,1.7,0.6,1.7,1.2v0.3c0,0.2-0.1,0.2-0.2,0.2h-0.7c-0.2,0-0.2-0.1-0.2-0.2V51.8"/>
	<path fill="#BC4428" d="M138,50.8c-0.1,0.1-0.9,0.4-1.7,0.7l-2.2,0.9c0,0-0.4-0.3-1-0.8c-0.5-0.4-1-0.8-1.1-0.9
		c-0.1-0.1-0.1,0-0.1,0c0.1,0.1,0.5,0.7,1,1.4c0.5,0.7,0.9,1.2,0.9,1.2l1.8,1.5c0.7,0.5,1.3,1,1.4,1.1c0.1,0.1,0.1,0,0.1-0.1
		c-0.1-0.1-0.6-0.7-1.2-1.4l-1.1-1.3l1.7-1.2C137.3,51.5,137.9,51,138,50.8C138.2,50.8,138.1,50.8,138,50.8"/>
	<g>
		<path fill="#CF4B27" d="M136.8,48.8c-0.1,0.1-0.6,0.8-1.1,1.5l-1.6,2.1l-2.6-0.1c-0.9,0-1.7,0-1.8,0c-0.2,0-0.2,0.1,0,0.1
			c0.1,0,1,0.2,1.8,0.4l2.5,0.5l0.7,2.4c0.2,0.8,0.5,1.6,0.6,1.7c0.1,0.1,0.1,0.1,0.1,0c0-0.2-0.1-1-0.2-1.8l-0.4-2.5l1.3-2.6
			C136.4,49.7,136.8,49,136.8,48.8C136.9,48.7,136.9,48.7,136.8,48.8"/>
		<path fill="#E55425" d="M138.7,54.2c-0.1-0.1-0.9-0.4-1.7-0.7l-2.4-1l-1-2.7c-0.3-0.8-0.6-1.6-0.7-1.7c-0.1-0.2-0.1-0.1-0.1,0
			c0,0.2,0.1,1,0.3,1.8l0.5,3.1c0,0-0.4,0.5-0.8,1.1c-0.5,0.6-0.9,1.2-1,1.3c-0.1,0.1,0,0.1,0.1,0.1c0.1-0.1,0.7-0.5,1.3-1
			c0.6-0.5,1.1-0.9,1.1-0.9l2.6,0.5C137.7,54.1,138.5,54.3,138.7,54.2C138.8,54.3,138.8,54.3,138.7,54.2"/>
	</g>
	<polygon fill="#C7C8C9" points="8.3,27.4 8.3,8.6 22.9,18.1 	"/>
	<polygon fill="#C7C8C9" points="13.7,23.9 8.3,27.3 8.3,38.4 13.7,38.4 13.7,24 13.7,24 	"/>
	<path fill="#424243" d="M22.9,18.1L22.9,18.1L22.9,18.1z"/>
	<path fill="#424243" d="M22.9,18.1L22.9,18.1L22.9,18.1z"/>
	<polygon fill="#C7C8C9" points="22.9,18.1 22.9,24.6 32.3,18.7 32.3,38.4 38.1,38.4 38.1,8.6 	"/>
	<g>
		<defs>
			<polygon id="SVGID_1_" points="8.3,27.4 22.9,18.1 8.3,8.6 			"/>
		</defs>
		<clipPath id="SVGID_2_">
			<use xlink:href="#SVGID_1_"  overflow="visible"/>
		</clipPath>
		<polygon clip-path="url(#SVGID_2_)" fill="#E55425" points="13.7,23.9 6.3,20.2 6.3,28.6 		"/>
	</g>
	<polygon fill="#40403E" points="22.9,18.1 13.7,23.9 13.7,30.4 22.9,24.6 	"/>
	<g>
		<path fill="#C7C8C9" d="M65.7,25.2l6.4-10.6h2.4v17.7h-3.4v-9.8l-4.2,6.9h-2.4l-4.2-6.9v9.8h-3.4V14.7h2.4L65.7,25.2z"/>
		<path fill="#C7C8C9" d="M89.1,14.4c5.5,0,9.2,4.1,9.2,9.1c0,5-3.8,9.1-9.2,9.1c-5.5,0-9.2-4.1-9.2-9.1
			C79.9,18.5,83.6,14.4,89.1,14.4z M89.1,29.6c3.3,0,5.8-2.7,5.8-6.1c0-3.3-2.5-6.1-5.8-6.1c-3.3,0-5.8,2.7-5.8,6.1
			C83.3,26.8,85.7,29.6,89.1,29.6z"/>
		<path fill="#C7C8C9" d="M109.1,14.7c2.8,0,4.6,0.6,6.1,1.7c2.2,1.6,3.5,4.2,3.5,7.2c0,2.9-1.3,5.6-3.5,7.2
			c-1.4,1.1-3.3,1.7-6.1,1.7h-5.6V14.7H109.1z M114,19.7c-1-1.2-2.4-2-4.5-2H107v11.6h2.5c2.1,0,3.5-0.7,4.5-2
			c0.8-1,1.3-2.4,1.3-3.8C115.3,22,114.8,20.7,114,19.7z"/>
		<path fill="#C7C8C9" d="M126.3,30.8c-1.5-1.3-2.3-3.2-2.3-5.9V14.7h3.4v10.5c0,1.6,0.4,2.6,1.2,3.3c0.8,0.7,1.8,1.1,3,1.1
			c1.2,0,2.2-0.4,3-1.1c0.7-0.7,1.2-1.7,1.2-3.3V14.7h3.4v10.2c0,2.7-0.8,4.6-2.3,5.9c-1.4,1.2-3.3,1.8-5.3,1.8
			C129.6,32.6,127.7,32,126.3,30.8z"/>
		<path fill="#C7C8C9" d="M145.6,14.7h3.4v14.6h7.4v3h-10.9V14.7z"/>
		<path fill="#C7C8C9" d="M163,30.8c-1.5-1.3-2.3-3.2-2.3-5.9V14.7h3.4v10.5c0,1.6,0.4,2.6,1.2,3.3c0.8,0.7,1.8,1.1,3,1.1
			c1.2,0,2.2-0.4,3-1.1c0.7-0.7,1.2-1.7,1.2-3.3V14.7h3.4v10.2c0,2.7-0.8,4.6-2.3,5.9c-1.4,1.2-3.3,1.8-5.3,1.8
			C166.3,32.6,164.4,32,163,30.8z"/>
		<path fill="#C7C8C9" d="M182.8,27.6c1,1.1,2.5,1.9,4.2,1.9c1.5,0,2.6-0.9,2.6-2.2c0-2.3-3.3-2.5-5.7-3.9c-1.4-0.8-2.5-2-2.5-4
			c0-3.2,2.9-5,5.8-5c1.8,0,3.5,0.4,5.1,1.7l-1.8,2.5c-0.7-0.7-1.9-1.2-3.1-1.2c-1.3,0-2.7,0.6-2.7,1.9c0,2.9,8.2,2,8.2,7.9
			c0,3.1-2.8,5.3-6,5.3c-2.4,0-4.6-1-6.4-2.6L182.8,27.6z"/>
	</g>
	<g>
		<path fill="#C7C8C9" d="M124.9,55l1.8-4.2h0.6l1.8,4.2h-0.8l-0.4-0.9h-1.7l-0.4,0.9H124.9z M126.5,53.3h1.1l-0.5-1.2L126.5,53.3z"
			/>
	</g>
	<g>
		<path fill="#C7C8C9" d="M177,52.9c0,0.8,0.6,1.4,1.4,1.4c0.5,0,0.9-0.3,1.2-0.6l0.6,0.5c-0.4,0.5-1,0.8-1.8,0.8
			c-1.3,0-2.2-1-2.2-2.2s0.9-2.2,2.2-2.2c0.6,0,1.2,0.2,1.5,0.6l-0.5,0.6c-0.3-0.3-0.6-0.4-1-0.4C177.6,51.5,177,52.1,177,52.9z"/>
		<path fill="#C7C8C9" d="M182.6,50.7c1.3,0,2.2,1,2.2,2.2c0,1.2-0.9,2.2-2.2,2.2c-1.3,0-2.2-1-2.2-2.2
			C180.5,51.7,181.4,50.7,182.6,50.7z M182.6,54.3c0.8,0,1.4-0.6,1.4-1.4c0-0.8-0.6-1.4-1.4-1.4c-0.8,0-1.4,0.6-1.4,1.4
			C181.3,53.7,181.9,54.3,182.6,54.3z"/>
		<path fill="#C7C8C9" d="M187.6,53.3l1.5-2.5h0.6V55h-0.8v-2.3l-1,1.6h-0.6l-1-1.6V55h-0.8v-4.2h0.6L187.6,53.3z"/>
		<path fill="#C7C8C9" d="M191.4,53.3V55h-0.8v-4.2h1.6c0.5,0,0.9,0.1,1.1,0.4c0.2,0.2,0.3,0.5,0.3,0.9c0,0.3-0.1,0.7-0.3,0.9
			c-0.2,0.2-0.6,0.4-1.1,0.4H191.4z M192.2,52.6c0.3,0,0.4-0.1,0.5-0.2c0.1-0.1,0.1-0.2,0.1-0.4c0-0.1,0-0.3-0.1-0.4
			c-0.1-0.1-0.2-0.2-0.5-0.2h-0.7v1H192.2z"/>
		<path fill="#C7C8C9" d="M193.3,55l1.8-4.2h0.6l1.8,4.2h-0.8l-0.4-0.9h-1.7l-0.4,0.9H193.3z M194.8,53.3h1.1l-0.5-1.2L194.8,53.3z"
			/>
		<path fill="#C7C8C9" d="M197.9,50.8h0.6l2.3,2.7v-2.7h0.8V55H201l-2.3-2.7V55h-0.8V50.8z"/>
		<path fill="#C7C8C9" d="M204.3,53.1V55h-0.8v-1.9l-1.4-2.3h0.9l0.9,1.5l0.9-1.5h0.9L204.3,53.1z"/>
	</g>
	<rect x="43.7" y="0.9" fill="#C7C8C9" width="3.6" height="43.9"/>
	<rect x="202.6" y="0" fill="#C7C8C9" width="3.6" height="47"/>
	<rect x="0" y="0" fill="#C7C8C9" width="3.6" height="47"/>
	<rect x="0" y="0" fill="#C7C8C9" width="206" height="3.6"/>
	<rect x="1.8" y="43.4" fill="#C7C8C9" width="204.2" height="3.6"/>
</g>
</svg>
