<?xml version="1.0" encoding="utf-8"?>
<!-- Generator: Adobe Illustrator 18.1.0, SVG Export Plug-In . SVG Version: 6.00 Build 0)  -->
<!DOCTYPE svg PUBLIC "-//W3C//DTD SVG 1.1//EN" "http://www.w3.org/Graphics/SVG/1.1/DTD/svg11.dtd">
<svg version="1.1" id="Layer_1" xmlns="http://www.w3.org/2000/svg" xmlns:xlink="http://www.w3.org/1999/xlink" x="0px" y="0px"
	 viewBox="0 0 512 512" enable-background="new 0 0 512 512" xml:space="preserve">
<path fill="#FFFFFF" d="M436,392.9c0,24.4-20.6,43.1-43.1,43.1H119.1C94.8,436,76,415.4,76,392.9V209.1h67.5c-5.6,15-9.4,30-9.4,45
	c0,67.5,54.4,123.7,121.9,123.7c67.5,0,121.9-54.4,121.9-123.8c0-16.9-3.8-31.9-9.4-45H436V392.9L436,392.9z M190.4,209.1
	c15-20.6,37.5-31.9,63.7-31.9c28.1,0,48.8,13.1,63.7,31.9c9.4,13.1,15,30,15,45c0,43.1-35.6,78.8-78.7,78.8s-78.7-33.7-78.7-78.7
	C177.3,237.2,181,222.2,190.4,209.1 M417.3,83.5h9.4v9.4v65.6h-76.9V81.6L417.3,83.5z M392.9,31H119.1C72.2,31,31,68.5,31,119.1v90
	v183.7c0,46.9,37.5,88.1,88.1,88.1h273.8c46.9,0,88.1-37.5,88.1-88.1V209.1v-90C479.1,68.5,441.6,31,392.9,31"/>
</svg>
