<?xml version="1.0" encoding="UTF-8" standalone="yes"?>
<!-- Created with sK1/UniConvertor (http://sk1project.org/) -->
<svg xmlns="http://www.w3.org/2000/svg" xmlns:xlink="http://www.w3.org/1999/xlink"
  width="1026pt" height="289pt" viewBox="0 0 1026 289"
  fill-rule="evenodd">
<g>
<g>
<path style="stroke:none; fill:#000000" d="M 82 30L 79.5 30.8L 81.8 31.5C 83.9 32.2 84 32.6 84 45.6C 84 58.6 83.9 59.1 81.8 60C 80.1 60.6 81.3 60.9 86.5 60.9C 91.7 60.9 92.9 60.6 91.3 60C 89.2 59.2 89 58.4 89 52.1C 89 45.5 89.2 45 91.4 44.4C 92.7 44.1 95.1 44 96.6 44.2C 99.5 44.5 99.5 44.6 99.8 51.5C 100 57.2 99.8 58.7 98.4 59.7C 96.9 60.8 97.5 61 102.8 61L 109 61L 107 59C 105.4 57.4 105 55.7 105 50.7C 105 42.6 103.2 40.6 96.8 41.2C 94.4 41.5 91.7 42 90.8 42.4C 89.2 43.1 89 42.5 89 36.1C 89 29.4 88.9 29 86.8 29.1C 85.5 29.2 83.4 29.6 82 30z"/>
<path style="stroke:none; fill:#000000" d="M 173.8 29.7C 171.6 30.2 171.4 32 173.5 32C 174.8 32 175 34.2 175 45.5C 175 58.6 174.9 59.1 172.8 60C 171.1 60.6 172.5 60.9 178 60.9C 184.2 60.8 185 60.7 182.8 59.8L 180 58.8L 180 43.9C 180 29.1 180 29 177.8 29.1C 176.5 29.2 174.7 29.4 173.8 29.7z"/>
<path style="stroke:none; fill:#000000" d="M 236.4 32.4C 232.7 36.1 232.7 36.2 233 50.1C 233.1 58.1 233 58.7 230.8 59.7C 228.9 60.7 229.8 60.9 236 60.9C 242.2 60.8 243 60.7 240.8 59.8C 238.1 58.9 238 58.6 238 50.9L 238 43L 241 43C 242.7 43 244 42.5 244 42C 244 41.4 242.7 41 241 41C 238.3 41 238 40.7 238 37.7C 238 35.9 238.6 33.5 239.4 32.5C 240.7 30.7 241.1 30.7 244.5 31.9C 247 32.8 248.5 32.9 249.2 32.2C 251 30.4 249 29 244.3 29C 240.5 29 239.3 29.5 236.4 32.4z"/>
<path style="stroke:none; fill:#000000" d="M 33.3 33C 26.2 37.3 28.4 43.5 38.6 48.1C 42.1 49.7 45.4 51.9 46 53.1C 48.9 58.4 38.4 61.4 33.6 56.7C 32.3 55.4 31.1 53.7 30.8 52.9C 30.4 51.9 29.9 51.8 29.1 52.5C 28.4 53.3 28.3 54.6 29.1 57.2C 29.9 60.4 30.6 61 33.6 61.6C 42.1 63.2 51.1 59.9 51.8 55C 52.6 49.8 51.2 48.1 43.2 44.2C 34.5 40 32.9 37.4 37.4 34.5C 40.8 32.3 45.7 33.3 47.2 36.6C 48.7 39.9 50 39.6 50 36C 50 32.4 48.1 31.3 41.5 31.1C 38.1 31 35.5 31.6 33.3 33z"/>
<path style="stroke:none; fill:#000000" d="M 64.1 42.7C 57 46.2 55.2 54.1 60.5 58.7C 64.4 62.1 69.5 62.7 74.6 60.1C 77 59 79 57.5 79 56.9C 79 56.2 78.3 56.1 77.3 56.5C 70.8 59.3 65.5 58.1 63.3 53.5C 60.1 46.7 65.4 41.5 73 44C 77.3 45.4 78.6 45 77.7 42.5C 76.8 40.4 68.5 40.5 64.1 42.7z"/>
<path style="stroke:none; fill:#000000" d="M 117.3 43C 112.9 45.6 111.1 51.4 113.4 55.7C 115.1 59.1 121.6 62.1 126 61.6C 127.4 61.4 129.3 61.2 130.2 61.1C 131.1 61.1 133.2 59.6 134.9 57.9C 137.3 55.6 138 54 138 51.2C 137.9 47.2 136.9 45.3 133 42.7C 129.6 40.3 121.4 40.5 117.3 43zM 129.5 44.5C 131.5 46.4 132 48 132 51.6C 132 58.6 128.3 61.6 122.5 59.4C 120.3 58.5 118 53.7 118 50C 118 46.4 121.8 42 125 42C 126.2 42 128.2 43.1 129.5 44.5z"/>
<path style="stroke:none; fill:#000000" d="M 149.4 41.9C 146.1 43.4 143 48 143 51.5C 143 57.9 149.6 62.6 157.3 61.6C 161.9 61 164.3 59.7 166.9 56.4C 169.8 52.7 169.6 48.7 166.1 44.8C 163.6 42 162.6 41.6 157.4 41.3C 154.2 41.2 150.5 41.4 149.4 41.9zM 160.1 44.9C 165.5 50.3 163.2 60 156.5 60C 149.5 60 146.1 48.5 151.6 44.1C 155.2 41.3 156.6 41.5 160.1 44.9z"/>
<path style="stroke:none; fill:#000000" d="M 205.3 43C 200.2 46.1 198.8 50.2 201.2 55.4C 204.7 63.3 220.6 63.6 224.5 55.9C 226.9 51.4 226.4 48.2 222.6 44.4C 219.6 41.4 218.6 41 213.9 41C 210.3 41 207.4 41.7 205.3 43zM 218.3 45.2C 220.4 47.8 220.6 54.8 218.4 57.8C 216.5 60.5 212.1 60.7 209 58.2C 207.4 56.9 206.6 55 206.3 51.3C 205.8 46.8 206 46.1 208.6 44.1C 211.9 41.5 215.5 41.9 218.3 45.2z"/>
<path style="stroke:none; fill:#000000" d="M 135.5 69.3C 127.7 73.1 123 79.2 123 85.6C 123 87.4 122.5 88 120.7 88C 118.4 88 116 89.7 116 91.2C 116 91.6 117.6 92 119.5 92L 123 92L 123 104.8C 123 118.4 122.5 120 118.3 120C 116.9 120 116 120.6 116 121.5C 116 122.8 117.7 123 127.5 122.8C 134.3 122.6 139 122.1 139 121.5C 139 120.9 137.8 120.3 136.3 120.2C 131.3 119.6 131 118.7 131 104.9L 131 92.1L 136.7 91.8C 141.3 91.6 142.6 91.1 142.8 89.7C 143.1 88.2 142.3 88 136.9 88L 130.8 88L 131.2 82.6C 131.8 75.2 134 72 138.6 72C 140.6 72 143.4 72.7 145 73.6C 148.2 75.6 151 74.9 151 72.2C 151 67.2 142.9 65.7 135.5 69.3z"/>
<path style="stroke:none; fill:#000000" d="M 682 68.1C 673.5 69.9 673 70 673 70.9C 673 71.4 674.3 72 675.9 72.3C 677.7 72.7 679 73.7 679.4 75.2C 680.2 78.3 680 113.9 679.1 117C 678.6 118.8 677.6 119.6 675.7 119.8C 674.2 120 673 120.8 673 121.6C 673 122.7 675 123 683.5 123C 691.7 123 694 122.7 694 121.6C 694 120.9 692.7 120 691 119.6L 688 119L 688 107.5C 688 96.2 688 96 690.6 94.3C 694.2 92 702.3 92 705 94.5C 706.9 96.2 707 97.3 706.8 107.9L 706.5 119.5L 703.8 119.8C 702.2 120 701 120.7 701 121.6C 701 122.7 703 123 711.5 123C 720 123 722 122.7 722 121.6C 722 120.7 720.8 120 719.3 119.8L 716.5 119.5L 716 107.5C 715.5 94.5 714.3 91.4 709.4 89.2C 705.5 87.3 697.4 87.8 693 90C 690.8 91.1 688.8 92 688.5 92C 688.2 92 688 86.4 688 79.5C 688 72.6 687.7 67 687.3 67.1C 686.8 67.2 684.5 67.6 682 68.1z"/>
<path style="stroke:none; fill:#000000" d="M 840.5 68C 838.9 68.4 835.8 69.1 833.8 69.4C 829.7 70.1 828.6 72 832.3 72C 836.8 72 837 73.1 837 96C 837 118.9 836.8 120 832.3 120C 830.9 120 830 120.6 830 121.5C 830 122.7 831.9 123 841 123C 850.1 123 852 122.7 852 121.5C 852 120.6 851.1 120 849.7 120C 845.2 120 845 119.1 845 92.3C 845 78.4 844.7 67 844.3 67.1C 843.8 67.1 842.2 67.5 840.5 68z"/>
<path style="stroke:none; fill:#000000" d="M 539 73.1C 539 75 538.7 78.2 538.4 80.2C 537.8 83.5 538 84 539.7 84C 541 84 542 82.8 542.9 80.4C 544.5 76.1 547 75 555.6 75L 562 75L 562 95.7C 562 107.2 561.6 117.1 561.1 117.8C 560.7 118.6 558.4 119.4 556.1 119.7C 553.6 120.1 552 120.8 552 121.6C 552 122.7 554.9 123 566.5 123C 578.7 123 581 122.8 581 121.5C 581 120.6 580.1 120 578.6 120C 577.2 120 575 119.6 573.6 119L 571 118L 571 96.5L 571 75L 577.9 75C 585.5 75 589.3 76.9 590.4 81.5C 590.8 82.9 591.7 84 592.5 84C 593.7 84 594 82.5 594 76.9C 594 69.9 594 69.8 591.8 70.6C 588.8 71.7 544.2 71.7 541.3 70.6C 539.2 69.8 539 70.1 539 73.1z"/>
<path style="stroke:none; fill:#000000" d="M 30.2 73.2C 30.5 73.9 32 74.6 33.6 74.8C 38.7 75.4 39 76.7 39 97.6C 39 118.8 38.7 120 32.9 120C 31 120 30 120.5 30 121.5C 30 122.8 31.9 123 43.2 122.8C 52.6 122.6 56.5 122.1 56.8 121.2C 57 120.4 56.1 120 54.3 120C 48.1 120 47.9 119.5 47.9 97.7C 47.8 76.2 48 75.3 53.2 74.8C 55 74.6 56.5 73.9 56.8 73.2C 57.1 72.3 54 72 43.5 72C 33 72 29.9 72.3 30.2 73.2z"/>
<path style="stroke:none; fill:#000000" d="M 392.2 74.2C 388.7 77.7 393.6 82.4 398.5 80.2C 401.4 78.9 402 74.6 399.4 73.6C 396.9 72.6 393.5 72.9 392.2 74.2z"/>
<path style="stroke:none; fill:#000000" d="M 363.1 80.6C 361.4 82 360 84.1 360 85.4C 360 87 359.1 87.8 356.8 88.5C 352.3 89.9 352 92 356.3 92L 359.8 92L 360.2 105.6C 360.5 118.5 360.6 119.3 362.9 121.1C 365.8 123.4 372.3 123.6 377.4 121.5C 382.5 119.4 382.1 117.7 376.7 118.5C 369.7 119.6 369 118.2 369 104L 369 92.1L 374.2 91.8C 378.3 91.6 379.6 91.1 379.8 89.7C 380.1 88.3 379.3 88 374.6 88L 369 88L 369 83C 369 77.1 367.8 76.6 363.1 80.6z"/>
<path style="stroke:none; fill:#000000" d="M 654.5 88.1C 642.2 90.3 634 97.8 634 106.8C 634 116 640.4 122.2 650.6 122.8C 658.4 123.3 660.2 122.9 666.4 119C 672.5 115.1 671.5 113 664.9 115.9C 656.7 119.7 648.8 117.8 644.2 111C 640.7 105.9 641.5 98.7 645.9 94.8C 649.8 91.3 656.6 91 662.4 94C 665.3 95.6 666.5 95.8 667.6 94.9C 669.2 93.6 669.5 90.4 668.1 89.5C 666 88.3 658.3 87.4 654.5 88.1z"/>
<path style="stroke:none; fill:#000000" d="M 68.2 89.5C 61.5 91.2 60.9 91.7 64.7 93.1C 68.5 94.4 69 96 69 107.6C 69 117.3 68.1 119.6 64.2 120.2C 63 120.4 61.8 120.9 61.7 121.5C 61.6 122.1 65.8 122.6 72.3 122.8C 81.2 123 83 122.8 83 121.6C 83 120.7 81.9 120 80.3 119.8L 77.5 119.5L 77.2 107.8L 76.9 96.1L 79.9 94.5C 84.3 92.3 91.5 92.5 94 95C 95.8 96.8 96 98.3 96 108L 96 119L 93 119.6C 91.4 120 90 120.9 90 121.7C 90 122.8 92 123 100.2 122.8C 106.9 122.6 110.5 122.1 110.7 121.3C 111 120.6 109.9 120 108.3 119.8L 105.5 119.5L 105 107.5C 104.7 100.9 103.9 94.5 103.2 93.3C 100.1 87.6 89.6 86.3 82.1 90.5C 79.8 91.9 77.6 93 77.4 93C 77.2 93 77 91.9 77 90.5C 77 87.6 76.2 87.6 68.2 89.5z"/>
<path style="stroke:none; fill:#000000" d="M 156.3 90.4C 142.4 97 141.8 113.2 155.1 120.5C 158.9 122.5 161.2 123 167.1 123C 180.3 123 188.1 117 188.7 106.2C 189.2 99.3 187.1 95.4 180.9 91.3C 177.3 89 175.4 88.5 169.1 88.2C 162.7 88 160.7 88.3 156.3 90.4zM 170.3 91.1C 176.9 92.9 181.1 102.2 179.1 111C 177.2 119.3 170.5 122.9 163.3 119.4C 158.6 117 156 112.6 155.4 105.8C 154.7 99.1 157.1 94.2 162 91.8C 166.1 89.7 165.5 89.7 170.3 91.1z"/>
<path style="stroke:none; fill:#000000" d="M 203.5 89C 201.9 89.4 199.3 90.1 197.8 90.4C 194.1 91.2 194.3 92.6 198 93.4L 201.1 94L 200.8 106.7L 200.5 119.5L 197.6 120C 195.9 120.3 194.6 120.9 194.6 121.5C 194.5 122.9 216 123.4 217.3 122.1C 218.4 121 217.8 120.7 212.8 119.6L 210 119L 210 108.9C 210 99.6 210.2 98.7 212.5 96.5C 215.2 93.8 217.6 93.4 221.4 95.2C 223.6 96.1 224.3 96 226 94.5C 228.4 92.3 228.5 91.6 226.4 89.6C 223.3 86.4 214.9 88.5 211.6 93.2C 210 95.4 210 95.4 210 91.7C 210 87.7 209.4 87.4 203.5 89z"/>
<path style="stroke:none; fill:#000000" d="M 238.6 89.4C 233.9 90.5 231 93 234.3 93C 238 93 239 95.8 239 106.1C 239 117.8 238.2 120 233.9 120C 231.9 120 231 120.4 231.3 121.2C 231.8 122.8 252 123.1 252.1 121.5C 252.1 120.9 251.1 120.3 249.8 120C 247.6 119.4 247.5 119 247.2 107.7L 246.9 95.9L 250.4 94.5C 254.1 92.9 260.8 92.5 262.6 93.8C 265.1 95.4 266 99.3 266 108.2C 266 118.2 265.3 120 261.3 120C 259.9 120 259 120.6 259 121.5C 259 122.7 260.8 123 269.5 123C 278.2 123 280 122.7 280 121.5C 280 120.7 279.2 120 278.2 120C 274.7 120 274 117.9 274 106.7L 274 95.9L 277.5 94.4C 279.4 93.7 282.9 93 285.3 93C 292.2 93 293 94.6 293 107.8L 293 118.9L 289.8 119.8C 283.8 121.3 286.9 122.5 297.5 122.8C 306.2 123 308 122.8 308 121.6C 308 120.7 306.9 120 305.3 119.8L 302.5 119.5L 302 107.4C 301.6 98.2 301.1 94.7 299.7 92.6C 296.2 87.3 288.1 86.5 278.9 90.6L 273.1 93.2L 270 90.6C 265.7 87 258.3 87 252.1 90.5C 249.8 91.9 247.6 93 247.4 93C 247.2 93 247 91.9 247 90.5C 247 87.7 246.3 87.6 238.6 89.4z"/>
<path style="stroke:none; fill:#000000" d="M 322.7 90.4C 313.9 94.1 311.8 96.7 315.9 99C 319 100.6 319.9 100.2 322.1 96.5C 325 91.7 327.2 90.6 331.4 92C 335 93.1 337.7 97.6 336.7 100.4C 336.4 101.2 332.8 102.8 328.8 104C 324.8 105.1 319.9 106.8 318 107.8C 315 109.3 314.5 110 314.2 113.6C 313.9 117.2 314.3 118.1 317 120.4C 321 123.7 327.3 123.9 333.1 120.9L 337.2 118.9L 338.7 120.9C 340.5 123.5 344.6 123.6 349.5 121.3C 353.3 119.5 353.7 117.3 350.1 117.8C 345.8 118.4 345 116.5 345 105.9C 345 100.4 344.5 94.9 343.8 93.5C 341.2 87.7 332.5 86.4 322.7 90.4zM 337 110.1C 337 116 337 116.1 333.5 117.6C 329.2 119.4 325.4 118.6 323.3 115.4C 322 113.3 321.9 112.7 323.2 110.8C 324.3 109.2 333.1 104.8 336.8 104.1C 336.9 104 337 106.7 337 110.1z"/>
<path style="stroke:none; fill:#000000" d="M 392.1 89.4C 386.7 90.6 383.9 93 387.8 93C 392.1 93 393 95.5 393 106.4C 393 117.3 392.2 119.6 388.2 120.2C 387 120.4 385.9 120.9 386 121.5C 386 122.1 390.5 122.6 397 122.8C 406.3 123 408 122.8 408 121.5C 408 120.7 407.1 120 406.1 120C 401.1 120 401 119.8 401 103.4C 401 86 401.9 87.3 392.1 89.4z"/>
<path style="stroke:none; fill:#000000" d="M 425.1 89.3C 417.4 91.8 410.8 101.9 412.5 108.9C 414.7 117.8 422.4 123 433.7 123C 444.8 123 451.6 119.2 454.6 111.5C 459.3 98.9 450.1 87.9 434.9 88.1C 431.4 88.2 427 88.7 425.1 89.3zM 440.3 92.4C 442.7 93.8 445.7 99.7 446 103.5C 446.5 111.3 446 114 443.1 117.2C 440.6 120 439.5 120.5 435.8 120.5C 433.2 120.5 430.3 119.7 428.6 118.7C 421.6 114.1 419.8 99.9 425.5 94C 427 92.4 429.2 90.9 430.4 90.7C 433.1 90.1 437.9 91 440.3 92.4z"/>
<path style="stroke:none; fill:#000000" d="M 469.1 89.4C 464.1 90.5 460.8 93 464.3 93C 468 93 469 95.8 469 106.1C 469 117.3 468.1 120 464.5 120C 462.9 120 462 120.6 462 121.5C 462 122.7 463.8 123 472.5 123C 480.7 123 483 122.7 483 121.6C 483 120.9 481.7 120 480 119.6L 477 119L 477 107.5L 477 95.9L 480.5 94.4C 482.4 93.7 485.9 93 488.3 93C 494.9 93 496.3 95.1 496.8 105.8C 497.3 116.2 496.1 120 492.5 120C 490.9 120 490 120.6 490 121.5C 490 122.7 491.8 123 500.5 123C 509 123 511 122.7 511 121.6C 511 120.7 509.8 120 508.3 119.8L 505.5 119.5L 505 107.5C 504.5 95.1 503.6 92.3 499.8 89.6C 496.3 87.1 488.1 87.6 482.6 90.5C 480 91.9 477.7 93 477.4 93C 477.2 93 477 91.9 477 90.5C 477 87.8 477 87.8 469.1 89.4z"/>
<path style="stroke:none; fill:#000000" d="M 603.5 89.4C 589.3 95.6 586.6 111.7 598.3 120.4C 600.2 121.8 603 122.5 607.4 122.8C 614.6 123.3 619.1 122.1 623.4 118.7C 627.2 115.6 626.1 113.6 621.9 115.7C 612 120.6 601.3 116.1 599.4 106.2L 598.8 103L 607.6 102.9C 612.5 102.9 618.8 102.5 621.5 102.2C 625.7 101.6 626.6 101.1 626.8 99.2C 627.2 96.2 624.7 92.4 620.7 90C 616.9 87.7 608.1 87.4 603.5 89.4zM 615.9 93.1C 617.2 94.3 618 96.1 617.8 97.3C 617.5 99.3 616.8 99.5 608.8 99.8C 598.7 100.1 597.7 99.1 602.9 93.9C 606.6 90.3 612.4 89.9 615.9 93.1z"/>
<path style="stroke:none; fill:#000000" d="M 734.2 89.5C 727.4 91.2 726.9 91.7 730.8 93.1L 734 94.2L 734 106.5C 734 119.6 733.8 120 728.8 120C 727.7 120 727 120.5 727.2 121.2C 727.5 122.1 730.9 122.6 738.3 122.8C 747.2 123 749 122.8 749 121.6C 749 120.7 747.9 120 746.3 119.8L 743.5 119.5L 743.2 107.8L 742.9 96.1L 745.9 94.5C 750.3 92.3 757.5 92.5 760 95C 761.7 96.7 762 98.3 762 107.3C 762 117.9 761.3 120 757.8 120C 756.8 120 756 120.7 756 121.5C 756 122.8 757.6 123 766.3 122.8C 772.4 122.6 776.4 122.1 776.3 121.5C 776.2 120.9 775.1 120.3 773.8 120C 771.6 119.4 771.5 118.9 771 107.5C 770.7 100.9 769.9 94.5 769.2 93.3C 766.1 87.6 755.6 86.3 748.1 90.5C 745.8 91.9 743.6 93 743.4 93C 743.2 93 743 91.9 743 90.5C 743 87.6 742.2 87.6 734.2 89.5z"/>
<path style="stroke:none; fill:#000000" d="M 793.5 89.9C 778.9 96.5 778.3 114.7 792.5 121.1C 797.9 123.6 809.1 123.6 814.5 121.1C 822.9 117.3 827.6 108.3 825.1 100.7C 823.7 96.5 818.7 91.6 813.8 89.6C 808.7 87.4 798.5 87.6 793.5 89.9zM 810 92.8C 817.9 98.6 818 115.4 810.1 119.4C 808.5 120.3 806.1 121 804.8 121C 801.5 121 796.3 117.5 794 113.8C 791.5 109.7 791.3 100.3 793.6 95.9C 796.5 90.2 804.4 88.7 810 92.8z"/>
<path style="stroke:none; fill:#000000" d="M 868.5 89.9C 860.5 93.5 855.9 101.6 857.4 109.2C 858.3 113.8 862.7 118.9 867.4 121.1C 872.9 123.6 884 123.6 889.5 121.1C 903.7 114.7 904.6 97.8 891.1 90.8C 884.5 87.4 874.9 87 868.5 89.9zM 885 92.8C 889.3 95.9 891.2 100.7 890.8 107.7C 890.3 115.2 887.9 119.1 882.8 120.4C 878.2 121.6 872.4 118.9 869.3 114.1C 866.5 110 866.1 100.6 868.6 95.9C 871.5 90.2 879.4 88.7 885 92.8z"/>
<path style="stroke:none; fill:#000000" d="M 917.5 89.3C 912.7 91.5 909 96.5 909 100.7C 909 103.6 909.8 105.1 913 108.1L 916.9 111.9L 913 113.7C 910.8 114.7 909 116.1 909 116.7C 909 118.1 911.6 120.9 914.4 122.5C 916 123.4 915.6 123.9 911.6 126.8C 906.3 130.6 905.5 134.3 909.3 137.7C 913.3 141.4 916.4 142.4 923.5 142.4C 940.2 142.5 953 132.3 947.9 122.8C 946.1 119.5 940.9 118 930.7 118C 924.3 118 920.8 117.6 919.5 116.6C 916.2 114.2 919.1 112.3 926.8 111.8C 934.9 111.3 938.7 109.6 941.8 105C 944.1 101.6 944.2 99.3 942.5 94.7C 941.9 93.3 942.3 93 944.7 93C 946.4 93 948.5 92.1 949.5 91C 951.3 89 951.2 89 946.3 89C 943.6 89 936.6 88.8 930.9 88.5C 923.2 88.1 919.7 88.3 917.5 89.3zM 932.1 92.9C 939 99.9 933 112 924.1 108.9C 920.3 107.6 918 104 918 99.5C 918 95 919.5 92.2 922.3 91C 926.3 89.4 929.1 90 932.1 92.9zM 934.1 124C 941.4 124 944.5 130.3 939.4 135.1C 937.3 137 935.6 137.5 929.6 137.8C 921.1 138.3 916.4 136.5 915.4 132.4C 914.9 130.4 915.3 129.2 917.3 127.3C 919.7 124.8 926.1 122.8 928.8 123.6C 929.6 123.8 931.9 124 934.1 124z"/>
<path style="stroke:none; fill:#000000" d="M 953 89.3C 953 90 954.4 91 956.2 91.5C 959 92.4 960.1 94 965.6 105C 973.7 121.1 974 122.7 970.3 128.2C 968.7 130.6 965.8 133.6 963.7 134.9C 961.7 136.2 960 137.9 960 138.6C 960 140.6 964.6 143.3 966.7 142.5C 967.8 142.1 972.2 134.5 977.5 123.9C 990.8 97.2 992.9 93.8 997.4 91.6C 999.7 90.5 1000.8 89.4 1000.2 88.8C 999 87.6 982.4 88.2 982.7 89.5C 982.8 90 983.9 90.6 985 90.8C 986.2 91 987.3 91.7 987.6 92.5C 988.3 94.3 979.2 113.6 978.2 112.4C 977.2 111.4 969 93.5 969 92.6C 969 92.2 970.2 91.5 971.6 91C 976.3 89.2 973 88 962.9 88C 955.5 88 953 88.3 953 89.3z"/>
<path style="stroke:none; fill:#000000" d="M 680.7 147.6C 679.3 149 680 150 682.4 150C 685.5 150 686 152 686 164C 686 176 685.5 177.8 682.2 178.2C 680.8 178.4 679.5 179.1 679.2 179.7C 678.9 180.7 682.5 181 694.8 181L 710.8 181L 711.9 177.9C 714.2 171.3 712.5 170 708.3 175C 705.9 177.9 705.4 178.1 699.1 177.8L 692.5 177.5L 692.2 171.2L 691.9 165L 696.9 165C 700.9 165 702.3 165.4 703.2 167C 705.6 170.7 707 169.4 707 163.5C 707 157.6 705.6 156.3 703.2 160C 702.3 161.6 700.9 162 697 162L 692 162L 692 156L 692 150L 697.8 150C 703.7 150 707 151.8 707 154.9C 707 155.6 707.6 156 708.3 155.7C 709 155.5 709.5 153.7 709.5 151.4L 709.5 147.5L 695.4 147.2C 687.7 147.1 681.1 147.3 680.7 147.6z"/>
<path style="stroke:none; fill:#000000" d="M 836.1 149.4C 834.3 151.5 835.6 153 839.1 153C 841.7 153 842.1 152.7 841.8 150.7C 841.4 148 837.9 147.2 836.1 149.4z"/>
<path style="stroke:none; fill:#000000" d="M 980.8 161.2L 980.5 166.5L 973.8 166.8C 964.8 167.2 965 169 974 169L 981 169L 981 174.5C 981 178.7 981.3 180 982.5 180C 983.7 180 984 178.7 984 174.5L 984 169L 990.5 169C 994.2 169 997 168.6 997 168C 997 167.4 994.2 167 990.5 167L 984 167L 984 161.5C 984 157.4 983.6 156 982.6 156C 981.5 156 981 157.5 980.8 161.2z"/>
<path style="stroke:none; fill:#000000" d="M 749.1 159.2L 745.7 160.1L 748.1 161.4C 750.4 162.5 750.5 162.9 750.8 175.8C 751 188.1 750.9 189 749 190.2C 745.6 192.3 746.7 193 753.5 193C 759.8 193 762 191.8 758 190.5C 756.4 190 756 189 756 185C 756 180.7 756.2 180.2 758 180.7C 761.4 181.6 769 178.9 772.6 175.5C 778 170.4 777.2 162.7 771 159.5C 767.4 157.6 763.3 157.6 760 159.5C 756.8 161.3 756 161.3 756 159.5C 756 157.8 754.1 157.7 749.1 159.2zM 768.8 164.6C 771.4 167.5 771.6 170 769.5 173.9C 767.9 177.1 766.2 178 762 178C 756.5 178 756 177.3 756 170C 756 163.5 756.1 163.1 758.8 162.1C 762.5 160.7 766.1 161.6 768.8 164.6z"/>
<path style="stroke:none; fill:#000000" d="M 787.9 160.1C 781.3 164 779.4 169.9 783 175.7C 786.4 181.3 796.1 182.5 802 178C 804.8 175.9 804.2 174.3 801.2 175.9C 800 176.5 797.5 177 795.5 177C 791.4 177 787 173.4 787 170C 787 168.2 787.6 168 793.8 168C 805.3 168 807.2 166.6 802.7 161.5C 799.5 157.7 792.9 157.1 787.9 160.1zM 797.2 161.7C 800.6 164.8 799.5 166 793 166C 789.7 166 787 165.7 787 165.3C 787 164.9 788 163.6 789.2 162.3C 791.7 159.6 794.6 159.4 797.2 161.7z"/>
<path style="stroke:none; fill:#000000" d="M 813.5 158.7C 808.9 159.7 808.4 160.1 810.3 161.1C 811.7 161.9 812 163.5 812 170.1C 812 177.4 811.8 178.1 809.8 179C 808.1 179.6 809.8 179.9 815.5 179.9C 822 179.8 823 179.7 820.8 178.8C 818.1 177.9 818 177.5 818 171.5C 818 166.1 818.3 164.9 820.1 163.6C 821.5 162.7 823.4 162.3 825.2 162.7C 828.6 163.4 830.6 161.4 828.8 159.3C 827.1 157.3 823.5 157.8 820.6 160.5L 818 162.9L 818 160.5C 818 158 817.4 157.8 813.5 158.7z"/>
<path style="stroke:none; fill:#000000" d="M 836 159.5C 832.1 160.7 831.8 160.9 833.8 161.5C 835.8 162.2 836 162.8 836 170.1C 836 177.4 835.8 178.1 833.8 179C 832.1 179.6 833.5 179.9 839 179.9C 844.5 179.9 845.9 179.6 844.3 179C 842.1 178.1 842 177.5 842 168C 842 162.5 841.7 158 841.3 158.1C 840.8 158.2 838.5 158.8 836 159.5z"/>
<path style="stroke:none; fill:#000000" d="M 857.4 159.4C 846.8 164 847.7 178.5 858.8 180.6C 862.8 181.4 870.1 179.3 870.8 177.2C 871.1 176.3 870.2 176.1 867.1 176.6C 862 177.4 857.6 175.7 856.1 172.4C 854.3 168.3 854.7 168 861.8 168C 870.3 168 873 167.2 873 165C 873 164 871.6 162 869.9 160.6C 866.5 157.7 862.3 157.3 857.4 159.4zM 865.1 161C 866.1 161.6 867 163 867 164C 867 165.8 866.3 166 861.5 166C 855.4 166 854.2 164.4 858.2 161.6C 860.8 159.7 862.4 159.6 865.1 161z"/>
<path style="stroke:none; fill:#000000" d="M 881 158.7C 877.5 159.4 876.4 160.7 878.9 161.5C 880.8 162.1 881 162.9 881 170C 881 177.6 880.9 177.9 878.3 178.8C 876 179.7 876.9 179.9 883.5 179.9C 890.6 180 891.2 179.8 889 178.7C 886.8 177.6 886.5 176.8 886.2 170.7L 885.9 163.9L 889.4 162.5C 894 160.6 894.6 160.6 897 163C 900 166 899.9 176.3 896.8 178.4C 894.7 179.9 894.9 180 901.5 179.9C 905.4 179.9 907.8 179.6 907 179.3C 904.5 178.3 904 176.8 904 169.3C 904 162.8 903.8 162 901.4 160.1C 898.2 157.6 895.2 157.5 890.3 159.5C 888.4 160.3 886.6 161 886.4 161C 886.2 161 886 160.3 886 159.5C 886 158 885.5 157.9 881 158.7z"/>
<path style="stroke:none; fill:#000000" d="M 921.4 159.1C 917.3 160.3 912.3 165 911.4 168.5C 909.9 174.6 916.3 181 924 181C 927.4 181 935 177.3 935 175.7C 935 175.2 934 175.1 932.8 175.5C 925.7 177.6 922.3 177.3 919 174C 916.3 171.3 916.4 165.6 919.1 162.9C 921.2 160.8 924 160.7 931.3 162.5C 933.6 163.1 934 162.9 934 161.2C 934 158.1 928.1 157.1 921.4 159.1z"/>
<path style="stroke:none; fill:#000000" d="M 946.1 159.8C 937 164.4 936.1 175.5 944.5 179.5C 948.6 181.4 952.1 181.4 956.5 179.6C 961.5 177.5 960.9 175.9 955.5 176.7C 950.2 177.4 946.8 176 945.1 172.3C 943.3 168.3 943.7 168 950.8 168C 959.3 168 962 167.2 962 165C 962 162.2 956.3 158 952.7 158C 950.9 158 948 158.8 946.1 159.8zM 954.1 161C 955.1 161.6 956 163 956 164C 956 165.8 955.3 166 950 166C 944.3 166 944 165.9 945 164C 946.9 160.4 950.6 159.2 954.1 161z"/>
<path style="stroke:none; fill:#000000" d="M 717.5 160.4C 719.2 161.1 722 163.6 723.8 165.8L 727 169.9L 723.9 173.5C 722.1 175.5 719.3 177.7 717.6 178.5C 714.6 179.8 714.7 179.8 721 179.9C 725.9 179.9 727.1 179.7 725.7 178.9C 724.1 177.9 724.1 177.7 726.1 174.9L 728.2 171.9L 730.6 174.1C 733.2 176.6 733.7 178.6 731.8 179.3C 731.1 179.6 733.9 179.9 738 179.9C 745.1 179.9 745.3 179.8 742.5 178.6C 740.9 177.8 737.8 175.1 735.6 172.5L 731.8 167.8L 735 164.5C 736.7 162.7 739.6 160.8 741.3 160.2C 744.2 159.3 743.9 159.2 738 159.1C 733.8 159.1 732 159.3 732.9 159.9C 734.1 160.7 734.1 161.2 732.6 163.5L 730.8 166.2L 728.1 163.6C 725.9 161.3 725.7 160.8 727 160C 728 159.3 726.3 159 721.5 159.1C 714.8 159.1 714.6 159.1 717.5 160.4z"/>
<path style="stroke:none; fill:#000000" d="M 444.2 238.2C 444.4 254.8 444.8 260.4 445.8 260.8C 446.7 261.1 447 256.2 447 238.6C 447 219 446.8 216 445.5 216C 444.2 216 444 218.9 444.2 238.2z"/>
<path style="stroke:none; fill:#000000" d="M 709.2 238.2C 709.4 254.8 709.8 260.4 710.8 260.8C 711.7 261.1 712 256.2 712 238.6C 712 219 711.8 216 710.5 216C 709.2 216 709 218.9 709.2 238.2z"/>
<path style="stroke:none; fill:#000000" d="M 222.3 218.7C 220.3 219.4 220.8 221 222.9 221C 224.7 221 224.6 221.7 221.4 233.7C 217.4 248.9 217.3 250 220.1 250C 222.6 250 229 246.3 229 244.9C 229 243.6 226.6 243.8 225.2 245.2C 222.9 247.5 223.1 245.2 226.5 233C 228.4 226.2 230 220 230 219.3C 230 218 224.9 217.6 222.3 218.7z"/>
<path style="stroke:none; fill:#000000" d="M 237.3 218.7C 235.5 219.4 235.7 221 237.5 221C 239.5 221 239.6 220.3 235.4 235.3C 233 243.9 232.2 248.6 232.9 249.3C 234.2 250.6 238.1 249.5 241.1 247.1C 243.9 244.9 243.1 243.3 240.1 245C 237.3 246.5 237.3 246 241.5 231.1C 243.4 224.2 245 218.5 245 218.3C 245 217.8 238.6 218.1 237.3 218.7z"/>
<path style="stroke:none; fill:#000000" d="M 278.3 218.7C 276.5 219.4 276.7 221 278.5 221C 279.3 221 280 221.1 280 221.3C 280 221.4 278.7 226.2 277 232C 272.6 247.3 273 250 279.9 250C 284.6 250 291.1 246.7 293.9 242.9C 297 238.7 297.8 232.9 295.5 230.7C 293.3 228.4 292.1 228.5 286.6 231.5C 284 232.9 281.7 234 281.5 234C 281.3 234 282.2 230.5 283.6 226.2C 284.9 222 286 218.4 286 218.2C 286 217.8 279.5 218.1 278.3 218.7zM 291.4 236.4C 291.2 240.6 288.6 244.9 285 246.7C 280.4 249 277.4 244.9 280.1 239.9C 281.4 237.4 289 231.8 290.4 232.3C 291 232.5 291.4 234.4 291.4 236.4z"/>
<path style="stroke:none; fill:#000000" d="M 843.6 218.9C 841.8 219.6 841.8 219.7 843.4 220.3C 845.5 221.1 845.6 220.5 841.1 236.9C 839.5 243.2 838.3 248.7 838.6 249.2C 839.6 250.7 842.9 250 845.7 247.6L 848.5 245.2L 845.6 245.7C 843.3 246.2 842.8 246 843.2 244.9C 843.5 244.1 844.8 239.8 846 235.5C 847.2 231.1 848.8 225.4 849.5 222.7L 850.9 218L 848.2 218.1C 846.7 218.1 844.6 218.5 843.6 218.9z"/>
<path style="stroke:none; fill:#000000" d="M 168.9 221.4C 160 224.6 155.4 230.9 156.3 238.7C 157.2 246.7 162.5 250 174.5 250C 181.4 250 182.3 249.8 184.5 247.4C 186.8 244.9 187.8 242 186.4 242C 186.1 242 184.3 243.2 182.5 244.6C 172.7 252.1 159.9 245.3 162.9 234.2C 164.4 228.9 166.7 226 171.4 223.9C 179.2 220.4 185.3 221.7 187.3 227.3C 188.3 230.1 190 228.3 190 224.5C 190 222.4 189.4 221 188.4 220.6C 185.6 219.5 172.6 220 168.9 221.4z"/>
<path style="stroke:none; fill:#000000" d="M 489 220.9C 489 221.4 489.5 222 490.2 222.2C 491.8 222.8 486.6 246 484.5 247.6C 482 249.5 482.8 250 488 250C 493 250 493.9 249.3 492 247.4C 490.7 246.1 495.5 225.3 497.6 222.9C 499.8 220.4 499.3 220 494 220C 491.3 220 489 220.4 489 220.9z"/>
<path style="stroke:none; fill:#000000" d="M 760.2 230.7C 756 236.7 750.8 243.2 748.8 245.4C 746.7 247.5 745 249.4 745 249.6C 745 249.8 747 250 749.5 250C 753.7 250 755.3 248.9 753 247.5C 752.4 247.2 753.1 245.2 754.7 243C 757.2 239.1 757.4 239 763 239C 768.1 239 768.8 239.2 769.4 241.2C 770.3 244.7 770.1 248 769 248C 768.5 248 768 248.4 768 249C 768 249.5 770.5 250 773.5 250C 779.2 250 780.1 249.5 777.5 247.6C 775.9 246.5 774.6 241.9 771.5 227.7C 770.6 223.5 769.4 220 768.9 220C 768.4 220 764.5 224.8 760.2 230.7zM 767 228.2C 767 228.9 767.3 231.2 767.6 233.2L 768.3 237L 763.6 237C 761.1 237 759 236.8 759 236.5C 759 236.3 760.4 234 762.2 231.5C 765.4 227 767 225.9 767 228.2z"/>
<path style="stroke:none; fill:#000000" d="M 383.3 224.2C 382.1 224.8 380.9 226.3 380.6 227.6C 380.2 229.1 379.2 230 378 230C 376.9 230 376 230.4 376 231C 376 231.5 376.7 232 377.5 232C 379.4 232 379.4 232 377.1 240.5C 376.1 244.3 375.5 248.1 375.7 248.7C 376.4 250.6 379 250.3 382.8 248C 386.6 245.7 387 244.7 383.5 246C 382.2 246.5 380.9 246.6 380.6 246.2C 380.4 245.8 381 242.5 381.9 239C 383.5 233.1 383.9 232.5 386.6 232.2C 390.9 231.7 392.1 230 388.1 230C 384.8 230 384.8 229.9 385.4 226.5C 385.8 224.6 386 223 385.8 223.1C 385.6 223.1 384.5 223.6 383.3 224.2z"/>
<path style="stroke:none; fill:#000000" d="M 646.7 224.1C 645.7 224.7 644.5 226.3 644 227.6C 643.4 229 642.2 230 641 230C 639.9 230 639 230.4 639 231C 639 231.5 639.9 232 640.9 232C 642.8 232 642.8 232.2 640.7 240C 639.1 245.9 638.9 248.3 639.7 249.1C 641 250.4 644.6 249.7 647.4 247.5C 649.9 245.6 648.9 244.5 646.1 246C 643.4 247.4 643.4 246.2 645.7 238C 647.2 232.5 647.6 232 650.1 232C 651.6 232 653.2 231.5 653.5 231C 653.9 230.4 652.8 230 651 230C 647.7 230 647.7 229.7 649.7 224.2C 650.3 222.7 649.1 222.7 646.7 224.1z"/>
<path style="stroke:none; fill:#000000" d="M 790.5 228.3C 788.9 229.8 786.6 231.7 785.5 232.6C 783.5 234.1 783.5 234.1 785.8 233.5C 787 233.1 788 233.2 788 233.7C 787.9 236.4 781 258.5 780.1 258.8C 777.3 259.7 779.5 261 784 261C 789.2 261 790 260.5 787.5 258.6C 786.3 257.7 786.2 256.8 787.1 253.7C 787.9 250.6 788.5 250 790.8 250C 797.7 250 807 241.9 807 235.9C 807 231.1 803.8 229.4 796.3 230C 794.8 230.1 794.1 229.5 793.8 227.8L 793.5 225.6L 790.5 228.3zM 801 233.5C 803.6 236.6 800.3 244.2 795.2 246.9C 792.3 248.5 788.8 247.4 789.4 245.2C 793.3 231.1 792.8 232 796.4 232C 798.2 232 800.3 232.7 801 233.5z"/>
<path style="stroke:none; fill:#000000" d="M 817.3 228.8C 815.6 230.3 813.4 232.1 812.4 232.8C 810.6 234 810.6 234.1 812.8 233.6C 814 233.4 815 233.6 815 234.1C 815 236.9 808.6 257.7 807.4 258.6C 805 260.5 805.8 261 811 261C 815.8 261 817.6 259.8 814.6 258.7C 813.5 258.2 813.4 257.3 814.2 254.1C 815.1 250.6 815.6 250 817.8 250C 821.7 250 828.8 246.2 831.5 242.6C 834.3 238.9 834.8 232.9 832.5 231C 831.7 230.3 828.7 229.8 825.9 229.8C 822.1 229.8 821 229.4 821.4 228.4C 822.4 225.9 820.4 226.1 817.3 228.8zM 827.8 233.2C 832 237.4 824 249.8 818.4 247.6C 816.6 246.9 816.8 243.7 819 235.7C 820 232.4 820.4 232 823.3 232C 825.1 232 827.1 232.5 827.8 233.2z"/>
<path style="stroke:none; fill:#000000" d="M 200.4 230.9C 194.8 233.5 192 237.3 192 242.5C 192 248.4 194.4 250.4 200.8 249.8C 206.8 249.2 211.7 246 213.6 241.4C 215.6 236.6 215.3 234.2 212.5 231.5C 209.6 228.5 206 228.3 200.4 230.9zM 208.4 233.6C 209.6 236.7 209 240.8 206.7 244.1C 204.1 248 201 248.9 198.5 246.4C 196.2 244.1 197 237.6 200.1 234.4C 202.7 231.6 207.5 231.2 208.4 233.6z"/>
<path style="stroke:none; fill:#000000" d="M 258.4 230.6C 250.2 232.7 244.6 240.4 246.4 247.5C 247.2 250.8 250.6 250.8 255.6 247.4C 260.5 244.1 260.5 244.1 259.7 243.4C 259.4 243.1 257.8 243.7 256.2 244.9C 251.6 248.1 250.7 247.7 251.3 242.4C 251.9 236.4 255.9 232 260.8 232C 264.1 232 264.2 232.1 263.6 235.2C 263.3 236.9 262.4 239 261.8 239.8C 260.1 241.8 260.1 249.1 261.8 249.7C 263.2 250.3 268 248.1 268 246.9C 268 246.5 267.4 246 266.6 245.8C 265.5 245.6 265.7 244 267.5 237.8L 269.7 230.2L 266.4 229.8C 264.5 229.6 261 229.9 258.4 230.6z"/>
<path style="stroke:none; fill:#000000" d="M 312.5 229.9C 305.3 231.7 301 236.6 301 243.2C 301 249.9 307.4 251.9 315.8 247.9C 324.4 243.7 326.3 232.7 318.8 230.1C 317.1 229.5 315.7 229 315.6 229.1C 315.5 229.2 314.2 229.5 312.5 229.9zM 316.1 232C 317.5 232.8 318 234.1 318 237.5C 318 244.8 311.1 250.7 307.2 246.8C 304.2 243.8 307 233.7 311.3 232C 314.2 230.9 313.9 230.9 316.1 232z"/>
<path style="stroke:none; fill:#000000" d="M 356.3 231.5C 349.6 234.5 346.8 238.7 347.2 245C 347.5 249.2 347.7 249.5 350.5 249.8C 352.7 250 354.9 249.2 357.9 246.9L 362.3 243.8L 361.6 246.4C 360.7 249.9 363.1 250.8 367.6 248.7C 371.3 246.9 372.3 244.4 369 245.3C 366.6 245.9 366.6 246.1 369 237.6C 370.1 233.8 370.7 230.3 370.4 229.9C 369.4 228.2 361.4 229.1 356.3 231.5zM 365 233.5C 365 238.2 355 248.4 352.7 246.1C 351.2 244.6 353.7 237.3 356.5 234.4C 359.3 231.6 365 231 365 233.5z"/>
<path style="stroke:none; fill:#000000" d="M 569.7 230.5C 560.7 233.6 556.2 242.6 561 247.8C 565.2 252.2 575.3 249.7 579.7 243.1C 585.4 234.7 579.3 227.1 569.7 230.5zM 575 233C 577.3 235.3 577.4 236.1 575.9 241.3C 574.7 245.7 571.1 248.5 567.5 247.6C 562.7 246.4 563.4 237.2 568.7 233C 571.9 230.5 572.5 230.5 575 233z"/>
<path style="stroke:none; fill:#000000" d="M 625 230C 616 231.6 610.8 237.3 611.2 245C 611.5 249 611.8 249.5 614 249.8C 615.6 250 618.1 249 620.8 247C 623.1 245.4 625.2 244 625.5 244C 625.7 244 625.7 245.3 625.4 247C 624.6 250.5 626.3 250.9 631 248.5C 634.4 246.7 635.1 244.5 632 245.5C 629.7 246.2 629.8 245.7 632.6 236C 633.4 233.5 634 231.2 634 230.9C 634 229.9 628.8 229.4 625 230zM 629 233C 629 236.1 625.6 241.2 621.9 243.9C 619.6 245.6 617.3 247 616.9 247C 613.7 247 616.4 236.2 620.3 233.5C 622.7 231.8 629 231.5 629 233z"/>
<path style="stroke:none; fill:#000000" d="M 330.8 231.4C 328.4 233.2 328.5 234.3 331 233.5C 332.9 232.9 332.9 233 331 239.7C 330 243.4 328.8 247.3 328.5 248.2C 328 249.6 328.3 250 329.8 250C 332.4 250 333.7 248.3 334.5 243.9C 335.5 238.7 339.9 233.7 343.5 233.6C 345.5 233.5 346.6 232.9 346.8 231.7C 347.2 229.5 343.2 229.4 340.4 231.5C 337.9 233.4 337 233.4 337 231.5C 337 229.6 333.2 229.6 330.8 231.4z"/>
<path style="stroke:none; fill:#000000" d="M 400 230.7C 395.5 232.4 391 239 391 243.8C 391 249.5 397.1 251.6 404.5 248.6C 408 247.1 409.6 244.2 406.3 245.5C 401.5 247.3 398.7 247.3 397.3 245.5C 395.1 242.4 395.8 241.4 401 240.1C 407.3 238.5 411.2 235.5 410.8 232.6C 410.6 230.9 409.8 230.5 406 230.3C 403.5 230.2 400.8 230.4 400 230.7zM 406.5 234C 406.5 235.4 403.8 237.1 399.3 238.5C 396.4 239.3 396.4 238 399.1 234.6C 401.4 231.6 406.5 231.2 406.5 234z"/>
<path style="stroke:none; fill:#000000" d="M 503.3 231.2C 500.5 232.5 500.2 234.4 502.9 233.5C 504.8 232.9 504.7 233.3 502.4 241.1C 501 245.5 500.1 249.4 500.4 249.7C 501.8 251.1 504.8 248.5 505.9 245C 507.6 239.1 519 229.8 519 234.2C 519 234.9 518.1 238.4 517 241.9C 514.6 249.4 515.3 251 519.9 249C 523.1 247.7 524 246 521.6 246C 520.5 246 520.6 244.9 522.1 239.9C 523.1 236.6 524 233 524 231.9C 524 229 519.2 229.5 513.7 233C 511.1 234.6 508.8 236 508.6 236C 508.5 236 508.5 234.6 508.8 233C 509.1 230.6 508.9 230 507.4 230.1C 506.3 230.1 504.5 230.6 503.3 231.2z"/>
<path style="stroke:none; fill:#000000" d="M 533.3 231.2C 530.5 232.6 530.3 234.4 533 233.5C 534.4 233.1 534.9 233.3 534.6 234.2C 534.3 234.9 533.2 238.6 532 242.3C 530.8 246.1 530 249.4 530.3 249.7C 531.8 251.1 534.8 248.6 535.9 245C 537.6 239.1 549 229.8 549 234.2C 549 234.9 548.1 238.4 547 241.9C 544.6 249.4 545.3 251 549.9 249C 553.1 247.7 554 246 551.6 246C 550.5 246 550.6 244.9 552.1 239.9C 553.1 236.6 554 233 554 231.9C 554 229 549.2 229.5 543.7 233C 541.1 234.6 538.8 236 538.6 236C 538.5 236 538.5 234.6 538.8 233C 539.1 230.6 538.9 230 537.4 230.1C 536.3 230.1 534.5 230.6 533.3 231.2z"/>
<path style="stroke:none; fill:#000000" d="M 588.2 231.2C 586.6 232.8 586.7 234.1 588.4 233.4C 590.2 232.7 591 235.9 591 243.7C 591 248.4 591.4 250 592.4 250C 593.1 250 597.2 246.4 601.4 241.9C 609.4 233.6 610.6 230.5 606 230.5C 603.9 230.5 603.5 230.9 603.8 233.2C 604 235.1 603.1 237 600.4 239.9C 598.4 242.2 596.4 244 595.9 244C 595.4 244 595 241.9 595 239.2C 595 232.3 594.1 230 591.6 230C 590.4 230 588.9 230.5 588.2 231.2z"/>
<path style="stroke:none; fill:#000000" d="M 661.2 232.1C 657.2 234.7 655 238.7 655 243.4C 655 247.7 657.2 250 661.3 250C 665 250 673 246.6 673 245C 673 243.7 672.4 243.7 668.9 245.6C 664.8 247.7 660.9 247.1 659.9 244.2C 659 241.7 658.8 241.9 668.3 238.5C 676.6 235.6 676.9 230 668.6 230C 666.2 230 663.2 230.9 661.2 232.1zM 670 233.6C 670 235.2 666.5 237.6 662.8 238.5C 659.6 239.3 659.3 238.4 661.6 235.2C 664.3 231.3 670 230.2 670 233.6z"/>
<path style="stroke:none; fill:#000000" d="M 854.8 231.1C 852.4 232.4 852.5 234.3 854.9 233.5C 856.6 233 856.9 233.8 858 241.1C 859.1 249 859.1 249.3 856.9 251.7C 855.6 253 852.6 255.3 850.3 256.8C 847.9 258.3 846 259.8 846 260.3C 846 261.1 850.5 260.2 853.3 258.8C 855.2 257.8 872.3 238.3 874 235C 875.5 232.2 874.6 230 872 230C 870.4 230 870 230.7 870 233.1C 870 234.9 868.7 238 866.8 240.8C 864 244.8 863.6 245.1 862.9 243.4C 862.5 242.4 862.1 240.1 862.1 238.3C 861.9 231.2 859.2 228.5 854.8 231.1z"/>
</g>
</g>
</svg>