<?xml version="1.0" standalone="no"?>
<!DOCTYPE svg PUBLIC "-//W3C//DTD SVG 1.1//EN" "http://www.w3.org/Graphics/SVG/1.1/DTD/svg11.dtd">
<svg width="800px" height="200px" version="1.1" xmlns="http://www.w3.org/2000/svg" xmlns:xlink="http://www.w3.org/1999/xlink" xml:space="preserve" style="fill-rule:evenodd;clip-rule:evenodd;stroke-linejoin:round;stroke-miterlimit:1.41421;">
    <g>
        <g id="Layer1">
            <g>
                <path d="M71.6111,96.8607L82.1717,96.8607C86.6558,96.8607 89.9182,96.0035 91.9553,94.2913C93.9935,92.5792 95.0139,90.0793 95.0139,86.7905C95.0139,83.6648 94.0343,81.1913 92.0764,79.3701C90.1209,77.5488 87.0899,76.6388 82.9858,76.6388L71.6111,76.6388L71.6111,96.8607ZM82.9858,70.3586C89.4542,70.3586 94.4156,71.7938 97.8674,74.6605C101.318,77.5297 103.046,81.599 103.046,86.8721C103.046,89.752 102.242,92.3082 100.639,94.5371C99.0352,96.7648 96.7392,98.5189 93.749,99.7958C96.9838,100.857 99.3146,102.582 100.741,104.974C102.168,107.367 102.882,110.316 102.882,113.821L102.882,118.592C102.882,120.413 103.112,121.759 103.575,122.628C104.036,123.498 104.799,124.014 105.857,124.177L107.815,124.422L107.815,129.681L103.494,129.681C100.367,129.681 98.1468,128.594 96.8279,126.42C95.5103,124.245 94.8496,121.609 94.8496,118.511L94.8496,113.903C94.8496,110.668 93.9132,108.072 92.0368,106.117C90.1616,104.158 87.6462,103.181 84.4941,103.181L71.6111,103.181L71.6111,123.402L78.257,124.544L78.257,129.681L56.9333,129.681L56.9333,124.544L63.5792,123.402L63.5792,76.6388L56.9333,75.4962L56.9333,70.3586Z" style="fill:rgb(227,227,227);fill-rule:nonzero;"/>
            </g>
            <g>
                <path d="M116.582,129.682L116.582,124.544L123.227,123.403L123.227,76.6389L116.582,75.4963L116.582,70.3179L162.163,70.3179L162.163,84.5881L155.274,84.5881L154.621,76.6389L131.259,76.6389L131.259,95.8405L153.97,95.8405L153.97,102.16L131.259,102.16L131.259,123.403L155.11,123.403L155.763,115.452L162.613,115.452L162.613,129.682L116.582,129.682Z" style="fill:rgb(227,227,227);fill-rule:nonzero;"/>
            </g>
            <g>
                <path d="M190.158,75.4958L184.738,76.3519L198.027,114.923L199.374,119.611L199.62,119.611L200.964,114.923L214.214,76.3123L208.873,75.4958L208.873,70.3187L227.587,70.3187L227.587,75.4958L222.816,76.1493L202.922,129.681L196.029,129.681L176.134,76.1493L171.404,75.4958L171.404,70.3187L190.158,70.3187L190.158,75.4958Z" style="fill:rgb(227,227,227);fill-rule:nonzero;"/>
            </g>
            <g>
                <path d="M274.492,99.5105C274.492,92.6068 272.841,86.9728 269.539,82.6109C266.236,78.249 261.664,76.0669 255.819,76.0669C250.22,76.0669 245.851,78.255 242.712,82.6325C239.572,87.0076 238.002,92.6355 238.002,99.5105L238.002,100.448C238.002,107.407 239.572,113.068 242.712,117.429C245.851,121.793 250.22,123.973 255.819,123.973C261.744,123.973 266.338,121.799 269.6,117.451C272.862,113.101 274.492,107.433 274.492,100.448L274.492,99.5105ZM282.524,100.448C282.524,109.093 280.044,116.269 275.084,121.974C270.123,127.684 263.701,130.538 255.819,130.538C248.154,130.538 241.93,127.684 237.147,121.974C232.362,116.269 229.97,109.093 229.97,100.448L229.97,99.5908C229.97,90.9762 232.362,83.8003 237.147,78.0644C241.93,72.3309 248.154,69.463 255.819,69.463C263.701,69.463 270.123,72.3309 275.084,78.0644C280.044,83.8003 282.524,90.9762 282.524,99.5908L282.524,100.448Z" style="fill:rgb(227,227,227);fill-rule:nonzero;"/>
            </g>
            <g>
                <path d="M287.891,129.682L287.891,124.544L294.536,123.403L294.536,76.6389L287.891,75.4963L287.891,70.3179L309.214,70.3179L309.214,75.4963L302.568,76.6389L302.568,123.403L323.199,123.403L323.81,116.595L330.66,116.595L330.66,129.682L287.891,129.682Z" style="fill:rgb(227,227,227);fill-rule:nonzero;"/>
            </g>
            <g>
                <path d="M355.145,70.3182L355.145,75.4954L348.499,76.638L348.499,110.559C348.499,115.045 349.776,118.449 352.332,120.772C354.886,123.097 358.258,124.259 362.443,124.259C366.847,124.259 370.395,123.104 373.085,120.794C375.776,118.483 377.121,115.071 377.121,110.559L377.121,76.638L370.475,75.4954L370.475,70.3182L391.798,70.3182L391.798,75.4954L385.152,76.638L385.152,110.559C385.152,117.003 383.052,121.942 378.852,125.381C374.654,128.817 369.184,130.538 362.443,130.538C355.892,130.538 350.593,128.817 346.543,125.381C342.492,121.942 340.467,117.003 340.467,110.559L340.467,76.638L333.823,75.4954L333.823,70.3182Z" style="fill:rgb(227,227,227);fill-rule:nonzero;"/>
            </g>
            <g>
                <path d="M450.726,70.3182L450.726,83.447L443.874,83.447L443.262,76.638L430.095,76.638L430.095,123.402L436.741,124.544L436.741,129.682L415.417,129.682L415.417,124.544L422.063,123.402L422.063,76.638L408.853,76.638L408.282,83.447L401.39,83.447L401.39,70.3182L450.726,70.3182Z" style="fill:rgb(227,227,227);fill-rule:nonzero;"/>
            </g>
            <g>
                <path d="M460.514,75.4958L460.514,70.3187L481.836,70.3187L481.836,75.4958L475.19,76.6385L475.19,123.402L481.836,124.543L481.836,129.681L460.514,129.681L460.514,124.543L467.16,123.402L467.16,76.6385L460.514,75.4958Z" style="fill:rgb(227,227,227);fill-rule:nonzero;"/>
            </g>
            <g>
                <path d="M531.725,99.5105C531.725,92.6068 530.074,86.9728 526.772,82.6109C523.47,78.249 518.897,76.0669 513.052,76.0669C507.453,76.0669 503.082,78.255 499.945,82.6325C496.804,87.0076 495.235,92.6355 495.235,99.5105L495.235,100.448C495.235,107.407 496.804,113.068 499.945,117.429C503.082,121.793 507.453,123.973 513.052,123.973C518.978,123.973 523.57,121.799 526.833,117.451C530.095,113.101 531.725,107.433 531.725,100.448L531.725,99.5105ZM539.757,100.448C539.757,109.093 537.277,116.269 532.317,121.974C527.357,127.684 520.934,130.538 513.052,130.538C505.387,130.538 499.163,127.684 494.379,121.974C489.594,116.269 487.203,109.093 487.203,100.448L487.203,99.5908C487.203,90.9762 489.594,83.8003 494.379,78.0644C499.163,72.3309 505.387,69.463 513.052,69.463C520.934,69.463 527.357,72.3309 532.317,78.0644C537.277,83.8003 539.757,90.9762 539.757,99.5908L539.757,100.448Z" style="fill:rgb(227,227,227);fill-rule:nonzero;"/>
            </g>
            <g>
                <path d="M603.263,70.3182L603.263,75.4954L596.617,76.638L596.617,129.682L588.587,129.682L560.046,83.8558L559.8,83.9349L559.8,123.402L566.448,124.544L566.448,129.682L545.124,129.682L545.124,124.544L551.77,123.402L551.77,76.638L545.124,75.4954L545.124,70.3182L559.8,70.3182L588.341,116.105L588.587,116.023L588.587,76.638L581.939,75.4954L581.939,70.3182Z" style="fill:rgb(227,227,227);fill-rule:nonzero;"/>
            </g>
            <g>
                <path d="M733.543,117.905C728.283,117.905 724.02,122.167 724.02,127.427C724.02,128.179 724.116,128.907 724.279,129.608C723.338,130.228 722.082,130.989 720.544,131.808C718.797,132.741 716.713,133.741 714.421,134.697C712.126,135.646 709.635,136.569 707.133,137.477C704.63,138.373 702.112,139.245 699.721,140.002C698.525,140.38 697.373,140.748 696.262,141.065C695.152,141.387 694.103,141.689 693.137,141.968C692.486,142.141 691.886,142.302 691.312,142.454C689.38,140.466 686.985,138.941 684.299,138.038C683.924,135.78 683.486,132.776 683.093,129.25C682.643,125.261 682.252,120.607 681.987,115.622C681.912,114.375 681.862,113.108 681.814,111.826C681.758,110.542 681.709,109.245 681.685,107.937C681.604,105.319 681.594,102.659 681.573,99.9994C681.594,97.3413 681.599,94.6819 681.678,92.0634C681.704,90.7553 681.746,89.4568 681.805,88.1751C681.857,86.8922 681.901,85.6249 681.978,84.378C682.24,79.3926 682.631,74.7394 683.083,70.7516C683.477,67.2242 683.914,64.222 684.294,61.9643C686.982,61.0615 689.38,59.534 691.312,57.5473C691.886,57.6996 692.486,57.859 693.137,58.0317C694.103,58.3111 695.152,58.6144 696.262,58.9345C697.373,59.2523 698.525,59.6203 699.721,59.998C702.112,60.7558 704.63,61.6274 707.133,62.5243C709.635,63.4307 712.126,64.3551 714.421,65.3047C716.713,66.2603 718.797,67.259 720.544,68.193C722.082,69.0119 723.338,69.7721 724.279,70.3931C724.116,71.0945 724.02,71.8211 724.02,72.5717C724.02,77.8328 728.283,82.0963 733.543,82.0963C738.803,82.0963 743.067,77.8328 743.067,72.5717C743.067,67.313 738.803,63.0482 733.543,63.0482C730.595,63.0482 727.961,64.3899 726.212,66.4941C725.15,66.1176 723.787,65.5744 722.212,64.8443C720.411,64.0134 718.357,62.9511 716.212,61.7006C714.074,60.4416 711.833,59.0113 709.601,57.5653C707.377,56.1073 705.164,54.6242 703.117,53.1735C702.095,52.4469 701.105,51.7491 700.183,51.0549C699.257,50.3643 698.385,49.7108 697.579,49.1065C697.045,48.6893 696.555,48.3056 696.085,47.9387C696.218,47.0671 696.309,46.181 696.309,45.2722C696.309,35.5413 688.417,27.6533 678.688,27.6533C668.956,27.6533 661.069,35.5413 661.069,45.2722C661.069,53.0392 666.101,59.6203 673.079,61.9643C673.459,64.2232 673.897,67.2242 674.292,70.7516C674.744,74.7394 675.135,79.3926 675.395,84.378C675.475,85.6249 675.518,86.8922 675.57,88.1751C675.629,89.4568 675.669,90.7553 675.695,92.0634C675.774,94.6819 675.782,97.3413 675.801,99.9994C675.782,102.659 675.77,105.319 675.688,107.937C675.665,109.245 675.617,110.542 675.562,111.826C675.513,113.108 675.464,114.375 675.386,115.622C675.123,120.607 674.73,125.261 674.283,129.25C673.887,132.776 673.452,135.779 673.074,138.038C670.389,138.941 667.993,140.466 666.061,142.454C665.49,142.302 664.89,142.141 664.239,141.968C663.27,141.689 662.221,141.387 661.113,141.065C660.003,140.748 658.848,140.38 657.652,140.002C655.263,139.245 652.746,138.373 650.24,137.477C647.741,136.569 645.247,135.646 642.955,134.697C640.662,133.741 638.576,132.741 636.829,131.808C635.291,130.989 634.036,130.228 633.097,129.608C633.26,128.907 633.356,128.179 633.356,127.427C633.356,123.036 630.382,119.353 626.343,118.25C626.245,117.16 626.118,115.57 626.014,113.64C625.905,111.782 625.813,109.61 625.758,107.287C625.736,106.123 625.685,104.922 625.685,103.701C625.675,102.48 625.666,101.242 625.657,99.9994C625.666,98.7597 625.678,97.5199 625.685,96.2994C625.69,95.0788 625.736,93.8786 625.76,92.7144C625.818,90.3896 625.91,88.2195 626.017,86.3587C626.12,84.4307 626.247,82.8397 626.343,81.751C630.382,80.648 633.356,76.9623 633.356,72.5717C633.356,67.313 629.092,63.0482 623.832,63.0482C618.572,63.0482 614.309,67.313 614.309,72.5717C614.309,76.9623 617.28,80.648 621.319,81.751C621.418,82.8397 621.545,84.4307 621.645,86.3587C621.756,88.2195 621.847,90.3896 621.906,92.7144C621.928,93.8786 621.973,95.0788 621.978,96.2994C621.99,97.5199 621.999,98.7597 622.009,99.9994C621.999,101.242 621.99,102.48 621.978,103.701C621.978,104.922 621.928,106.123 621.908,107.287C621.849,109.61 621.758,111.782 621.65,113.64C621.545,115.57 621.418,117.16 621.322,118.25C617.28,119.352 614.309,123.036 614.309,127.427C614.309,132.688 618.572,136.952 623.832,136.952C626.781,136.952 629.417,135.611 631.164,133.506C632.223,133.882 633.586,134.424 635.161,135.157C636.962,135.988 639.016,137.049 641.161,138.301C643.301,139.558 645.541,140.989 647.772,142.436C649.999,143.893 652.212,145.376 654.256,146.828C655.28,147.553 656.271,148.252 657.193,148.946C658.116,149.637 658.989,150.29 659.797,150.895C660.329,151.311 660.821,151.697 661.291,152.062C661.158,152.935 661.069,153.819 661.069,154.728C661.069,164.459 668.956,172.347 678.688,172.347C688.417,172.347 696.309,164.459 696.309,154.728C696.309,153.819 696.218,152.933 696.085,152.061C696.555,151.696 697.045,151.311 697.579,150.895C698.385,150.29 699.257,149.637 700.183,148.946C701.105,148.252 702.095,147.553 703.117,146.828C705.164,145.376 707.377,143.893 709.601,142.436C711.833,140.989 714.074,139.558 716.212,138.301C718.357,137.049 720.411,135.988 722.212,135.157C723.787,134.424 725.15,133.882 726.212,133.506C727.961,135.611 730.595,136.952 733.543,136.952C738.803,136.952 743.067,132.688 743.067,127.427C743.067,122.167 738.803,117.905 733.543,117.905" style="fill:rgb(227,227,227);fill-rule:nonzero;"/>
            </g>
        </g>
    </g>
</svg>
